<svg xmlns="http://www.w3.org/2000/svg" xml:space="preserve" width="0.590551in" height="0.590551in" version="1.1" style="shape-rendering:geometricPrecision; text-rendering:geometricPrecision; image-rendering:optimizeQuality; fill-rule:evenodd; clip-rule:evenodd"
viewBox="0 0 590.55 590.55"
 xmlns:xlink="http://www.w3.org/1999/xlink"
 xmlns:xodm="http://www.corel.com/coreldraw/odm/2003">
 <defs>
  <style type="text/css">
   <![CDATA[
    .str0 {stroke:#9f7d48;stroke-width:7.87;stroke-miterlimit:4}
    .str1 {stroke:#9f7d48;stroke-width:3.94;stroke-miterlimit:4}
    .fil0 {fill:none;fill-rule:nonzero}
   ]]>
  </style>
 </defs>
 
 <g id="Layer_x0020_1_0">
  
  <g id="_2055998956320">
   <path class="fil0 str0" d="M293.89 231.82c-73.63,0 -133.32,59.69 -133.32,133.32 0,73.63 59.69,133.32 133.32,133.32 73.63,0 133.32,-59.69 133.32,-133.32 0,-73.63 -59.69,-133.32 -133.32,-133.32z"/>
   <line class="fil0 str0" x1="261.9" y1="188.03" x2="174.04" y2= "94.87" />
   <line class="fil0 str0" x1="325.38" y1="191.21" x2="416.22" y2= "94.87" />
   <path class="fil0 str0" d="M272.8 230.74c-4.52,-13.36 -12.19,-42.02 -14.01,-65.24 -1.63,-20.83 1.43,-37.26 11.69,-45.23 5.86,-4.55 14.04,-6.34 23.33,-6.14 9.29,-0.2 17.48,1.59 23.36,6.14 10.28,7.97 13.43,24.4 11.85,45.23 -1.74,23.21 -9.35,51.88 -13.87,65.24"/>
   <path class="fil0 str1" d="M371.19 291.72c7.59,-11.81 4.69,-27.79 -7.3,-35.5 -11.99,-7.71 -27.73,-3.71 -35.32,8.1 -7.59,11.81 -4.69,27.79 7.3,35.5 11.99,7.7 27.73,3.71 35.32,-8.11z"/>
   <path class="fil0 str1" d="M398.61 345.17c12.78,-5.83 18.97,-20.84 13.05,-33.81 -5.93,-12.97 -21.32,-18.11 -34.1,-12.28 -12.77,5.83 -18.97,20.84 -13.05,33.81 5.92,12.97 21.32,18.11 34.09,12.28z"/>
   <path class="fil0 str1" d="M392.79 404.96c13.9,2 27.22,-7.28 29.26,-21.39 2.03,-14.11 -8.15,-26.76 -22.05,-28.76 -13.9,-2 -27.22,7.28 -29.26,21.39 -2.03,14.11 8.15,26.77 22.05,28.77z"/>
   <path class="fil0 str1" d="M355.56 452.11c10.61,9.19 26.84,8.6 36.17,-2.18 9.33,-10.78 7.62,-26.92 -3,-36.12 -10.61,-9.19 -26.84,-8.59 -36.17,2.18 -9.33,10.78 -7.62,26.92 3,36.12z"/>
   <path class="fil0 str1" d="M298.75 471.65c3.96,13.47 17.93,21.74 31.61,17.72 13.68,-4.02 20.96,-18.53 17.01,-32 -3.96,-13.48 -17.93,-21.74 -31.61,-17.73 -13.68,4.02 -20.96,18.53 -17.01,32z"/>
   <path class="fil0 str1" d="M240.4 457.37c-3.96,13.47 3.33,27.98 17.01,32 13.68,4.02 27.65,-4.25 31.61,-17.72 3.95,-13.48 -3.33,-27.99 -17.01,-32 -13.68,-4.02 -27.65,4.25 -31.61,17.73z"/>
   <path class="fil0 str1" d="M199.03 413.81c-10.61,9.2 -12.33,25.34 -3,36.12 9.33,10.78 25.56,11.37 36.18,2.18 10.61,-9.2 12.33,-25.34 2.99,-36.12 -9.33,-10.77 -25.56,-11.37 -36.17,-2.18z"/>
   <path class="fil0 str1" d="M187.78 354.8c-13.9,2 -24.07,14.65 -22.05,28.76 2.03,14.11 15.36,23.39 29.26,21.39 13.9,-2 24.07,-14.65 22.05,-28.77 -2.03,-14.11 -15.36,-23.38 -29.26,-21.39z"/>
   <path class="fil0 str1" d="M210.21 299.07c-12.77,-5.83 -28.17,-0.69 -34.1,12.28 -5.92,12.96 0.28,27.97 13.05,33.81 12.77,5.83 28.17,0.69 34.09,-12.28 5.93,-12.97 -0.28,-27.98 -13.05,-33.81z"/>
   <path class="fil0 str1" d="M259.21 264.32c-7.59,-11.81 -23.33,-15.81 -35.32,-8.1 -12,7.71 -14.9,23.69 -7.3,35.5 7.59,11.81 23.33,15.81 35.32,8.11 11.99,-7.71 14.89,-23.69 7.3,-35.5z"/>
   <path class="fil0 str1" d="M319.22 261.58c0,-14.04 -11.08,-25.92 -25.33,-25.92 -14.26,0 -25.33,11.87 -25.33,25.92 0,14.04 11.08,25.91 25.33,25.91 14.26,0 25.33,-11.87 25.33,-25.91z"/>
   <path class="fil0 str0" d="M293.89 291.35c-40.76,0 -73.8,33.04 -73.8,73.8 0,40.76 33.04,73.8 73.8,73.8 40.76,0 73.8,-33.04 73.8,-73.8 0,-40.76 -33.04,-73.8 -73.8,-73.8z"/>
  </g>
 </g>
</svg>
