<svg xmlns="http://www.w3.org/2000/svg" xml:space="preserve" width="0.590551in" height="0.590551in" version="1.1" style="shape-rendering:geometricPrecision; text-rendering:geometricPrecision; image-rendering:optimizeQuality; fill-rule:evenodd; clip-rule:evenodd"
viewBox="0 0 590.55 590.55"
 xmlns:xlink="http://www.w3.org/1999/xlink"
 xmlns:xodm="http://www.corel.com/coreldraw/odm/2003">
 <defs>
  <style type="text/css">
   <![CDATA[
    .str0 {stroke:#9f7d48;stroke-width:9.84;stroke-miterlimit:4}
    .str1 {stroke:#9f7d48;stroke-width:3.94;stroke-miterlimit:4}
    .fil0 {fill:none;fill-rule:nonzero}
   ]]>
  </style>
 </defs>
 
 <g id="Layer_x0020_1_0">
  
  <g id="_2055955735024">
   <path class="fil0 str0" d="M373.59 269.67c-15.12,26.2 -48.63,35.17 -74.82,20.06 -26.19,-15.13 -35.17,-48.63 -20.04,-74.83 15.11,-26.2 48.61,-35.17 74.81,-20.05 26.2,15.13 35.17,48.63 20.05,74.82z"/>
   <path class="fil0 str0" d="M468.47 324.44c15.12,-26.2 48.63,-35.18 74.82,-20.05 26.2,15.13 35.17,48.63 20.05,74.82 -15.12,26.2 -48.63,35.18 -74.82,20.05 -26.2,-15.13 -35.17,-48.62 -20.05,-74.82z"/>
   <path class="fil0 str0" d="M468.47 269.67c-15.13,-26.2 -6.15,-59.69 20.05,-74.82 26.2,-15.13 59.7,-6.15 74.82,20.05 15.13,26.2 6.15,59.7 -20.05,74.83 -26.2,15.12 -59.7,6.14 -74.82,-20.06z"/>
   <path class="fil0 str0" d="M373.59 324.44c15.13,26.2 6.15,59.7 -20.05,74.82 -26.2,15.13 -59.7,6.15 -74.81,-20.05 -15.13,-26.2 -6.15,-59.69 20.04,-74.82 26.2,-15.13 59.7,-6.15 74.82,20.05z"/>
   <path class="fil0 str1" d="M483.44 261.02c-10.35,-17.93 -4.21,-40.85 13.72,-51.2 17.93,-10.35 40.85,-4.21 51.2,13.72 10.35,17.93 4.21,40.85 -13.72,51.21 -17.93,10.35 -40.85,4.2 -51.2,-13.72z"/>
   <path class="fil0 str1" d="M483.44 333.09c10.35,-17.94 33.27,-24.07 51.2,-13.72 17.93,10.35 24.07,33.28 13.72,51.21 -10.35,17.93 -33.27,24.07 -51.2,13.72 -17.93,-10.35 -24.07,-33.28 -13.72,-51.2z"/>
   <path class="fil0 str1" d="M421.03 369.12c20.7,0 37.48,16.78 37.48,37.48 0,20.7 -16.78,37.48 -37.48,37.48 -20.7,0 -37.48,-16.78 -37.48,-37.48 0,-20.7 16.78,-37.48 37.48,-37.48z"/>
   <path class="fil0 str0" d="M421.03 351.83c30.25,0 54.78,24.52 54.78,54.78 0,30.25 -24.53,54.77 -54.78,54.77 -30.25,0 -54.78,-24.52 -54.78,-54.77 0,-30.26 24.53,-54.78 54.78,-54.78z"/>
   <path class="fil0 str1" d="M358.62 333.09c10.35,17.92 4.21,40.85 -13.72,51.2 -17.93,10.35 -40.85,4.21 -51.2,-13.72 -10.35,-17.93 -4.2,-40.86 13.72,-51.21 17.93,-10.35 40.85,-4.21 51.2,13.72z"/>
   <path class="fil0 str1" d="M358.62 261.02c-10.35,17.93 -33.27,24.07 -51.2,13.72 -17.92,-10.36 -24.06,-33.28 -13.72,-51.21 10.35,-17.93 33.27,-24.07 51.2,-13.72 17.93,10.35 24.07,33.27 13.72,51.2z"/>
   <path class="fil0 str0" d="M421.03 242.28c-30.25,0 -54.78,-24.53 -54.78,-54.78 0,-30.25 24.53,-54.77 54.78,-54.77 30.25,0 54.78,24.52 54.78,54.77 0,30.25 -24.53,54.78 -54.78,54.78z"/>
   <path class="fil0 str1" d="M421.03 224.99c-20.7,0 -37.48,-16.78 -37.48,-37.48 0,-20.7 16.78,-37.48 37.48,-37.48 20.7,0 37.48,16.78 37.48,37.48 0,20.7 -16.78,37.48 -37.48,37.48z"/>
   <path class="fil0 str0" d="M421.03 242.28c-30.25,0 -54.78,24.52 -54.78,54.77 0,30.26 24.53,54.78 54.78,54.78 30.25,0 54.78,-24.52 54.78,-54.78 0,-30.25 -24.53,-54.77 -54.78,-54.77z"/>
   <path class="fil0 str1" d="M421.03 259.57c-20.7,0 -37.48,16.78 -37.48,37.48 0,20.7 16.78,37.48 37.48,37.48 20.7,0 37.48,-16.78 37.48,-37.48 0,-20.7 -16.78,-37.48 -37.48,-37.48z"/>
   <line class="fil0 str0" x1="304.59" y1="292.63" x2="17.5" y2= "372.57" />
  </g>
 </g>
</svg>
