<svg xmlns="http://www.w3.org/2000/svg" xml:space="preserve" width="0.590551in" height="0.590551in" version="1.1" style="shape-rendering:geometricPrecision; text-rendering:geometricPrecision; image-rendering:optimizeQuality; fill-rule:evenodd; clip-rule:evenodd"
viewBox="0 0 590.55 590.55"
 xmlns:xlink="http://www.w3.org/1999/xlink"
 xmlns:xodm="http://www.corel.com/coreldraw/odm/2003">
 <defs>
  <style type="text/css">
   <![CDATA[
    .str0 {stroke:#9f7d48;stroke-width:7.87;stroke-miterlimit:4}
    .str1 {stroke:#9f7d48;stroke-width:3.94;stroke-miterlimit:4}
    .fil0 {fill:none;fill-rule:nonzero}
   ]]>
  </style>
 </defs>
 <g id="Layer_x0020_1">
  
  <g id="_2826429977488">
   <path class="fil0 str0" d="M293.89 332.76c19.93,0 36.09,16.16 36.09,36.09 0,19.94 -16.16,36.09 -36.09,36.09 -19.93,0 -36.09,-16.16 -36.09,-36.09 0,-19.93 16.16,-36.09 36.09,-36.09z"/>
   <path class="fil0 str0" d="M262.63 278.62c-9.97,17.26 -32.04,23.17 -49.31,13.21 -17.26,-9.97 -23.18,-32.04 -13.21,-49.31 9.96,-17.26 32.04,-23.18 49.3,-13.21 17.26,9.97 23.18,32.04 13.21,49.31z"/>
   <path class="fil0 str0" d="M293.89 260.57c-19.93,0 -36.09,16.16 -36.09,36.09 0,19.93 16.16,36.09 36.09,36.09 19.93,0 36.09,-16.16 36.09,-36.09 0,-19.93 -16.16,-36.09 -36.09,-36.09z"/>
   <line class="fil0 str0" x1="390.69" y1="344.03" x2="531.99" y2= "344.03" />
   <line class="fil0 str0" x1="531.99" y1="250.53" x2="391.07" y2= "250.53" />
   <line class="fil0 str0" x1="196.7" y1="250.53" x2="55.78" y2= "250.53" />
   <line class="fil0 str0" x1="55.78" y1="344.03" x2="197.08" y2= "344.03" />
   <path class="fil0 str0" d="M262.63 314.71c9.97,17.27 4.05,39.34 -13.21,49.31 -17.26,9.96 -39.34,4.05 -49.3,-13.21 -9.97,-17.27 -4.05,-39.34 13.21,-49.31 17.26,-9.96 39.34,-4.05 49.31,13.21z"/>
   <path class="fil0 str1" d="M335.01 272.92c-6.82,-11.81 -2.77,-26.92 9.04,-33.74 11.81,-6.82 26.92,-2.78 33.74,9.04 6.82,11.81 2.78,26.92 -9.04,33.74 -11.81,6.82 -26.92,2.78 -33.74,-9.04z"/>
   <path class="fil0 str0" d="M325.14 278.62c-9.96,-17.27 -4.05,-39.34 13.21,-49.31 17.26,-9.97 39.34,-4.06 49.31,13.21 9.96,17.27 4.05,39.34 -13.21,49.31 -17.26,9.96 -39.34,4.05 -49.31,-13.21z"/>
   <path class="fil0 str1" d="M335.01 320.41c6.82,-11.81 21.93,-15.86 33.74,-9.04 11.81,6.82 15.86,21.93 9.04,33.74 -6.82,11.81 -21.93,15.86 -33.74,9.04 -11.81,-6.82 -15.86,-21.93 -9.04,-33.74z"/>
   <path class="fil0 str0" d="M325.14 314.71c9.97,-17.26 32.04,-23.17 49.31,-13.21 17.26,9.97 23.18,32.04 13.21,49.31 -9.97,17.26 -32.04,23.17 -49.31,13.21 -17.26,-9.97 -23.18,-32.04 -13.21,-49.31z"/>
   <path class="fil0 str1" d="M293.89 344.15c13.64,0 24.7,11.06 24.7,24.7 0,13.64 -11.06,24.7 -24.7,24.7 -13.64,0 -24.7,-11.06 -24.7,-24.7 0,-13.64 11.06,-24.7 24.7,-24.7z"/>
   <path class="fil0 str1" d="M252.76 320.41c6.82,11.82 2.77,26.92 -9.04,33.74 -11.81,6.82 -26.92,2.77 -33.74,-9.04 -6.82,-11.81 -2.77,-26.92 9.04,-33.74 11.81,-6.82 26.92,-2.78 33.74,9.04z"/>
   <path class="fil0 str1" d="M252.76 272.92c-6.82,11.81 -21.93,15.86 -33.74,9.04 -11.81,-6.82 -15.86,-21.93 -9.04,-33.74 6.82,-11.82 21.93,-15.87 33.74,-9.04 11.81,6.82 15.86,21.93 9.04,33.74z"/>
   <path class="fil0 str0" d="M293.89 260.57c-19.93,0 -36.09,-16.16 -36.09,-36.1 0,-19.93 16.16,-36.09 36.09,-36.09 19.93,0 36.09,16.16 36.09,36.09 0,19.94 -16.16,36.1 -36.09,36.1z"/>
   <path class="fil0 str1" d="M293.89 249.18c-13.64,0 -24.7,-11.06 -24.7,-24.7 0,-13.64 11.06,-24.7 24.7,-24.7 13.64,0 24.7,11.06 24.7,24.7 0,13.64 -11.06,24.7 -24.7,24.7z"/>
   <path class="fil0 str1" d="M293.89 271.96c-13.64,0 -24.7,11.06 -24.7,24.7 0,13.64 11.06,24.7 24.7,24.7 13.64,0 24.7,-11.06 24.7,-24.7 0,-13.64 -11.06,-24.7 -24.7,-24.7z"/>
   <path class="fil0 str0" d="M55.78 344.03c-25.81,0 -46.75,-20.93 -46.74,-46.75 0,-25.82 20.93,-46.75 46.74,-46.75"/>
   <path class="fil0 str0" d="M531.99 344.03c25.81,0 46.74,-20.93 46.74,-46.75 0,-25.82 -20.93,-46.75 -46.74,-46.75"/>
  </g>
 </g>
 
</svg>
