<svg xmlns="http://www.w3.org/2000/svg" xml:space="preserve" width="0.590551in" height="0.590551in" version="1.1" style="shape-rendering:geometricPrecision; text-rendering:geometricPrecision; image-rendering:optimizeQuality; fill-rule:evenodd; clip-rule:evenodd"
viewBox="0 0 590.55 590.55"
 xmlns:xlink="http://www.w3.org/1999/xlink"
 xmlns:xodm="http://www.corel.com/coreldraw/odm/2003">
 <defs>
  <style type="text/css">
   <![CDATA[
    .str0 {stroke:#9f7d48;stroke-width:7.87;stroke-miterlimit:4}
    .str1 {stroke:#9f7d48;stroke-width:3.94;stroke-miterlimit:4}
    .fil0 {fill:none;fill-rule:nonzero}
   ]]>
  </style>
 </defs>
 
 <g id="Layer_x0020_1_0">
  
  <g id="_2055937933120">
   <path class="fil0 str0" d="M250.41 393.12c13.51,23.39 5.49,53.3 -17.9,66.82 -23.4,13.5 -53.31,5.48 -66.82,-17.91 -13.5,-23.4 -5.49,-53.3 17.91,-66.81 23.39,-13.5 53.31,-5.5 66.81,17.91z"/>
   <path class="fil0 str1" d="M348.49 336.48c-11.83,-20.49 -8.24,-33.89 12.26,-45.72 20.49,-11.83 33.89,-8.25 45.73,12.25 11.83,20.49 8.23,33.89 -12.26,45.72 -20.5,11.83 -33.9,8.24 -45.73,-12.26z"/>
   <path class="fil0 str0" d="M335.12 344.2c-13.51,-23.4 -5.49,-53.3 17.91,-66.82 23.39,-13.5 53.31,-5.49 66.81,17.91 13.5,23.4 5.5,53.31 -17.89,66.82 -23.4,13.5 -53.31,5.5 -66.82,-17.91z"/>
   <path class="fil0 str1" d="M348.49 400.84c11.83,-20.5 25.23,-24.1 45.73,-12.26 20.49,11.83 24.09,25.23 12.26,45.72 -11.84,20.5 -25.24,24.09 -45.73,12.26 -20.5,-11.83 -24.09,-25.23 -12.26,-45.72z"/>
   <path class="fil0 str0" d="M335.12 393.12c13.5,-23.4 43.42,-31.41 66.82,-17.91 23.39,13.51 31.4,43.42 17.89,66.81 -13.5,23.39 -43.42,31.41 -66.81,17.91 -23.4,-13.52 -31.42,-43.43 -17.91,-66.82z"/>
   <path class="fil0 str1" d="M292.76 433.01c23.67,0 33.46,9.81 33.46,33.47 0,23.67 -9.8,33.47 -33.46,33.47 -23.67,0 -33.46,-9.81 -33.46,-33.47 0,-23.67 9.8,-33.47 33.46,-33.47z"/>
   <path class="fil0 str0" d="M292.76 417.57c27.01,0 48.91,21.91 48.91,48.91 0,27.02 -21.91,48.91 -48.91,48.91 -27,0 -48.9,-21.9 -48.9,-48.91 0,-27.01 21.9,-48.91 48.9,-48.91z"/>
   <path class="fil0 str1" d="M237.04 400.84c11.83,20.49 8.24,33.89 -12.26,45.72 -20.5,11.83 -33.89,8.25 -45.73,-12.26 -11.83,-20.49 -8.24,-33.89 12.26,-45.72 20.5,-11.84 33.89,-8.24 45.73,12.26z"/>
   <path class="fil0 str1" d="M237.04 336.48c-11.83,20.5 -25.23,24.09 -45.73,12.26 -20.49,-11.83 -24.09,-25.23 -12.26,-45.72 11.84,-20.5 25.23,-24.09 45.73,-12.25 20.5,11.83 24.09,25.22 12.26,45.72z"/>
   <path class="fil0 str0" d="M250.41 344.2c-13.5,23.4 -43.42,31.41 -66.81,17.91 -23.4,-13.51 -31.41,-43.42 -17.91,-66.82 13.5,-23.4 43.42,-31.41 66.82,-17.91 23.39,13.52 31.41,43.42 17.9,66.82z"/>
   <path class="fil0 str0" d="M292.76 319.74c-27,0 -48.9,-21.9 -48.9,-48.91 0,-27 21.9,-48.91 48.9,-48.91 27.01,0 48.91,21.91 48.91,48.91 0,27.02 -21.91,48.91 -48.91,48.91z"/>
   <path class="fil0 str1" d="M292.76 304.3c-23.67,0 -33.46,-9.8 -33.46,-33.47 0,-23.67 9.8,-33.46 33.46,-33.46 23.67,0 33.46,9.8 33.46,33.46 0,23.68 -9.8,33.47 -33.46,33.47z"/>
   <path class="fil0 str1" d="M292.76 335.19c-23.67,0 -33.46,9.81 -33.46,33.47 0,23.67 9.8,33.47 33.46,33.47 23.67,0 33.46,-9.8 33.46,-33.47 0,-23.67 -9.8,-33.47 -33.46,-33.47z"/>
   <path class="fil0 str0" d="M292.76 319.74c-27,0 -48.9,21.91 -48.9,48.91 0,27.02 21.9,48.91 48.9,48.91 27.01,0 48.91,-21.89 48.91,-48.91 0,-27.01 -21.91,-48.91 -48.91,-48.91z"/>
   <line class="fil0 str0" x1="327.66" y1="185.01" x2="428.64" y2= "77.94" />
   <line class="fil0 str0" x1="257.11" y1="181.47" x2="159.46" y2= "77.94" />
   <path class="fil0 str0" d="M268.95 228.11c-5.05,-15.17 -13.31,-46.35 -15.3,-71.68 -1.81,-23.13 1.59,-41.41 12.99,-50.26 6.51,-5.06 15.62,-7.05 25.93,-6.83 10.33,-0.22 19.44,1.77 25.96,6.83 11.43,8.85 14.92,27.13 13.18,50.26 -1.91,25.33 -10.08,56.52 -15.13,71.68"/>
  </g>
 </g>
</svg>
