<svg xmlns="http://www.w3.org/2000/svg" xml:space="preserve" width="0.590551in" height="0.590551in" version="1.1" style="shape-rendering:geometricPrecision; text-rendering:geometricPrecision; image-rendering:optimizeQuality; fill-rule:evenodd; clip-rule:evenodd"
viewBox="0 0 590.55 590.55"
 xmlns:xlink="http://www.w3.org/1999/xlink"
 xmlns:xodm="http://www.corel.com/coreldraw/odm/2003">
 <defs>
  <style type="text/css">
   <![CDATA[
    .str1 {stroke:#9f7d48;stroke-width:7.87;stroke-miterlimit:4}
    .str0 {stroke:#9f7d48;stroke-width:3.94;stroke-miterlimit:4}
    .fil0 {fill:none;fill-rule:nonzero}
   ]]>
  </style>
 </defs>
 
 <g id="Layer_x0020_1_0">
  
  <g id="_2055995639728">
   <path class="fil0 str0" d="M345.63 292.53c15.13,0 21.39,6.26 21.39,21.38 0,15.12 -6.26,21.37 -21.39,21.37 -15.11,0 -21.37,-6.25 -21.37,-21.37 0,-15.12 6.26,-21.38 21.37,-21.38z"/>
   <path class="fil0 str0" d="M397.88 292.53c15.11,0 21.37,6.26 21.37,21.38 0,15.12 -6.26,21.37 -21.37,21.37 -15.11,0 -21.37,-6.25 -21.37,-21.37 0,-15.12 6.26,-21.38 21.37,-21.38z"/>
   <path class="fil0 str0" d="M189.88 292.53c-15.11,0 -21.37,6.26 -21.37,21.38 0,15.12 6.26,21.37 21.37,21.37 15.12,0 21.38,-6.25 21.38,-21.37 0,-15.12 -6.26,-21.38 -21.38,-21.38z"/>
   <path class="fil0 str0" d="M242.13 292.53c-15.11,0 -21.38,6.26 -21.38,21.38 0,15.12 6.26,21.37 21.38,21.37 15.11,0 21.37,-6.25 21.37,-21.37 0,-15.12 -6.26,-21.38 -21.37,-21.38z"/>
   <path class="fil0 str0" d="M314.12 456.54c0,-15.12 -6.26,-21.38 -21.38,-21.38 -15.1,0 -21.37,6.26 -21.37,21.38 0,15.11 6.26,21.37 21.37,21.37 15.11,0 21.38,-6.26 21.38,-21.37z"/>
   <path class="fil0 str0" d="M314.12 404.28c0,15.13 -6.26,21.39 -21.38,21.39 -15.1,0 -21.37,-6.26 -21.37,-21.39 0,-15.11 6.26,-21.37 21.37,-21.37 15.11,0 21.38,6.25 21.38,21.37z"/>
   <path class="fil0 str0" d="M314.12 352.04c0,15.11 -6.26,21.38 -21.38,21.38 -15.1,0 -21.37,-6.26 -21.37,-21.38 0,-15.11 6.26,-21.37 21.37,-21.37 15.11,0 21.38,6.26 21.38,21.37z"/>
   <path class="fil0 str0" d="M314.12 299.78c0,15.11 -6.26,21.39 -21.38,21.39 -15.1,0 -21.37,-6.27 -21.37,-21.39 0,-15.11 6.26,-21.37 21.37,-21.37 15.11,0 21.38,6.26 21.38,21.37z"/>
   <path class="fil0 str0" d="M314.12 247.54c0,-15.11 -6.26,-21.39 -21.38,-21.39 -15.1,0 -21.37,6.27 -21.37,21.39 0,15.11 6.26,21.37 21.37,21.37 15.11,0 21.38,-6.26 21.38,-21.37z"/>
   <path class="fil0 str0" d="M314.12 195.29c0,-15.12 -6.26,-21.38 -21.38,-21.38 -15.1,0 -21.37,6.26 -21.37,21.38 0,15.11 6.26,21.37 21.37,21.37 15.11,0 21.38,-6.26 21.38,-21.37z"/>
   <line class="fil0 str1" x1="333.68" y1="181.47" x2="410.16" y2= "100.37" />
   <line class="fil0 str1" x1="254.09" y1="179.13" x2="179.81" y2= "100.37" />
   <polygon class="fil0 str1" points="333.68,272.61 333.68,159.52 254.09,159.52 254.09,272.61 161.37,272.61 161.37,352.2 254.09,352.2 254.09,492.96 333.68,492.96 333.68,352.2 426.4,352.2 426.4,272.61 "/>
  </g>
 </g>
</svg>
