<svg xmlns="http://www.w3.org/2000/svg" xml:space="preserve" width="0.590551in" height="0.590551in" version="1.1" style="shape-rendering:geometricPrecision; text-rendering:geometricPrecision; image-rendering:optimizeQuality; fill-rule:evenodd; clip-rule:evenodd"
viewBox="0 0 590.55 590.55"
 xmlns:xlink="http://www.w3.org/1999/xlink"
 xmlns:xodm="http://www.corel.com/coreldraw/odm/2003">
 <defs>
  <style type="text/css">
   <![CDATA[
    .str0 {stroke:#9f7d48;stroke-width:7.87;stroke-miterlimit:4}
    .str1 {stroke:#9f7d48;stroke-width:3.94;stroke-miterlimit:4}
    .fil0 {fill:none;fill-rule:nonzero}
   ]]>
  </style>
 </defs>
 
 <g id="Layer_x0020_1_0">
  
  <g id="_2055932224352">
   <path class="fil0 str0" d="M168.76 320.46c1.18,13.41 4.56,26.52 10.91,38.04 14.2,25.77 43.27,43.57 74.77,48.31 35.52,5.35 74.13,-5.9 92.33,-20.75"/>
   <path class="fil0 str0" d="M450.18 254.07c-5.36,-18.21 -17.75,-34.3 -31.27,-45.43 -21.33,-17.55 -45.48,-22.76 -69.04,-23.41 -28.21,-0.78 -55.57,4.97 -77.2,25.67 -22.6,21.62 -38.96,59.55 -31.37,92.74 3.34,14.6 11.32,28.28 21.35,37.98"/>
   <path class="fil0 str1" d="M244.17 253.96c-23.44,-0.43 -37.39,-26.33 -24.85,-46.14 12.54,-19.81 41.91,-18.28 52.33,2.71"/>
   <path class="fil0 str0" d="M39.57 297.32c-24.25,1.49 -31.35,33.84 -9.96,45.35"/>
   <path class="fil0 str0" d="M548.2 298.7c24.25,-1.48 31.36,-33.83 9.96,-45.34"/>
   <path class="fil0 str1" d="M70.86 297.12c15.55,0 28.15,12.6 28.15,28.15 0,15.55 -12.61,28.15 -28.15,28.15 -15.55,0 -28.15,-12.6 -28.15,-28.15 0,-15.55 12.6,-28.15 28.15,-28.15z"/>
   <path class="fil0 str1" d="M132.14 270.02c17.27,0 31.27,14 31.27,31.27 0,17.27 -14,31.27 -31.27,31.27 -17.27,0 -31.27,-14 -31.27,-31.27 0,-17.27 14,-31.27 31.27,-31.27z"/>
   <path class="fil0 str1" d="M183.38 222.46c17,0 30.78,13.78 30.78,30.78 0,17 -13.78,30.78 -30.78,30.78 -17,0 -30.78,-13.78 -30.78,-30.78 0,-17 13.78,-30.78 30.78,-30.78z"/>
   <path class="fil0 str1" d="M455.62 259.43c18.55,0 33.58,15.04 33.58,33.58 0,18.54 -15.04,33.58 -33.58,33.58 -18.55,0 -33.58,-15.04 -33.58,-33.58 0,-18.54 15.03,-33.58 33.58,-33.58z"/>
   <path class="fil0 str1" d="M402.62 310.93c17.74,0 32.11,14.38 32.11,32.12 0,17.74 -14.38,32.12 -32.11,32.12 -17.74,0 -32.12,-14.38 -32.12,-32.12 0,-17.74 14.38,-32.12 32.12,-32.12z"/>
   <path class="fil0 str1" d="M354.57 188.6c15.99,0 28.95,12.96 28.95,28.95 0,15.99 -12.96,28.96 -28.95,28.96 -15.99,0 -28.96,-12.96 -28.96,-28.96 0,-15.99 12.96,-28.95 28.96,-28.95z"/>
   <path class="fil0 str1" d="M293.17 208.11c16.7,0 30.25,13.54 30.25,30.25 0,16.71 -13.54,30.26 -30.25,30.26 -16.71,0 -30.25,-13.54 -30.25,-30.26 0,-16.71 13.54,-30.25 30.25,-30.25z"/>
   <path class="fil0 str0" d="M29.61 342.67c13.03,7.01 27.24,12.15 41.84,13.7 35.5,3.78 73.26,-13.63 99.71,-38.09 14.26,-13.19 25.24,-28.41 39.37,-41.95 7.87,-7.54 16.72,-14.55 28.06,-17.62 1.78,-0.48 3.61,-0.86 5.5,-1.15"/>
   <path class="fil0 str1" d="M272.09 272.12c15.04,0 27.23,12.19 27.23,27.23 0,15.04 -12.19,27.23 -27.23,27.23 -15.04,0 -27.23,-12.19 -27.23,-27.23 0,-15.04 12.19,-27.23 27.23,-27.23z"/>
   <path class="fil0 str0" d="M39.57 297.32c8.69,-0.53 17.35,-1.77 25.83,-3.83 29.72,-7.21 57.15,-24.44 78.45,-46.72 9.53,-9.98 17.84,-20.97 28.75,-29.94 21.82,-17.93 54.07,-27.76 81.11,-26.31 12.55,0.67 23.98,3.77 35.28,8.06"/>
   <path class="fil0 str1" d="M210.93 275.96c15.75,9.43 18.77,31 6.23,44.41 -12.54,13.41 -34.26,11.81 -44.72,-3.27"/>
   <path class="fil0 str1" d="M220.58 331.77c14.15,0 25.63,11.47 25.63,25.63 0,14.16 -11.47,25.63 -25.63,25.63 -14.15,0 -25.63,-11.47 -25.63,-25.63 0,-14.15 11.48,-25.63 25.63,-25.63z"/>
   <path class="fil0 str1" d="M274.75 351.65c13.8,0 24.99,11.19 24.99,24.99 0,13.8 -11.19,24.99 -24.99,24.99 -13.8,0 -24.99,-11.19 -24.99,-24.99 0,-13.8 11.19,-24.99 24.99,-24.99z"/>
   <path class="fil0 str0" d="M332.76 330.02c16.44,0 29.77,13.33 29.77,29.77 0,16.44 -13.33,29.77 -29.77,29.77 -16.44,0 -29.77,-13.33 -29.77,-29.77 0,-16.44 13.33,-29.77 29.77,-29.77z"/>
   <path class="fil0 str0" d="M223.1 265.95c-0.41,9.29 -0.61,18.43 0.15,27.48 0.97,11.46 3.5,22.79 9.36,30.98 5.85,8.19 15.04,13.24 24.83,15.98 19.59,5.5 41.63,1.79 60.75,-6.57"/>
   <path class="fil0 str0" d="M558.16 253.36c-13.03,-7.01 -27.25,-12.15 -41.85,-13.7 -35.5,-3.78 -73.26,13.63 -99.71,38.09 -14.26,13.18 -25.23,28.41 -39.37,41.94 -7.33,7.02 -15.52,13.59 -25.77,16.94"/>
   <path class="fil0 str0" d="M399.26 297.24c-6.89,-25.92 -17.89,-35.94 -27.19,-41.51 -9.29,-5.57 -16.87,-6.67 -24.79,-6.33 -7.93,0.34 -16.19,2.15 -24.09,6.89 -7.91,4.74 -15.46,12.43 -19.56,26.36 -3.72,12.67 -4.59,30.52 14.57,51.17"/>
   <path class="fil0 str0" d="M548.2 298.7c-8.69,0.54 -17.35,1.78 -25.83,3.83 -29.72,7.21 -57.16,24.44 -78.45,46.72 -9.54,9.98 -17.84,20.97 -28.75,29.94 -21.82,17.93 -54.07,27.76 -81.1,26.32 -7.12,-0.38 -13.88,-1.54 -20.46,-3.26"/>
   <path class="fil0 str1" d="M416.35 275.19c-29.87,6.12 -47.46,-32.34 -23.31,-50.94 24.15,-18.6 56.84,8.23 43.3,35.55"/>
   <path class="fil0 str1" d="M520.81 244.2c15.15,0 27.42,12.28 27.42,27.42 0,15.14 -12.28,27.42 -27.42,27.42 -15.14,0 -27.42,-12.28 -27.42,-27.42 0,-15.15 12.28,-27.42 27.42,-27.42z"/>
  </g>
 </g>
</svg>
