<svg xmlns="http://www.w3.org/2000/svg" xml:space="preserve" width="0.590551in" height="0.590551in" version="1.1" style="shape-rendering:geometricPrecision; text-rendering:geometricPrecision; image-rendering:optimizeQuality; fill-rule:evenodd; clip-rule:evenodd"
viewBox="0 0 590.55 590.55"
 xmlns:xlink="http://www.w3.org/1999/xlink"
 xmlns:xodm="http://www.corel.com/coreldraw/odm/2003">
 <defs>
  <style type="text/css">
   <![CDATA[
    .str2 {stroke:#9f7d48;stroke-width:7.87;stroke-miterlimit:4}
    .str1 {stroke:#9E1A24;stroke-width:7.87;stroke-miterlimit:4}
    .str0 {stroke:#9f7d48;stroke-width:3.94;stroke-miterlimit:4}
    .fil0 {fill:none;fill-rule:nonzero}
    .fil1 {fill:#417f27;fill-rule:nonzero}
   ]]>
  </style>
 </defs>
 
 <g id="Layer_x0020_1_0">
  
  <g id="_2055932112080">
   <path class="fil0 str0" d="M371.19 223.24c7.59,-11.81 4.69,-27.79 -7.3,-35.5 -11.99,-7.71 -27.73,-3.71 -35.32,8.1 -7.59,11.81 -4.69,27.79 7.3,35.5 11.99,7.7 27.73,3.71 35.32,-8.11z"/>
   <path class="fil0 str0" d="M398.61 276.69c12.78,-5.83 18.97,-20.84 13.05,-33.81 -5.93,-12.97 -21.32,-18.11 -34.1,-12.28 -12.77,5.83 -18.97,20.84 -13.05,33.81 5.92,12.97 21.32,18.11 34.09,12.28z"/>
   <path class="fil0 str0" d="M392.79 336.48c13.9,2 27.22,-7.28 29.26,-21.39 2.03,-14.11 -8.15,-26.76 -22.05,-28.76 -13.9,-2 -27.22,7.28 -29.26,21.39 -2.03,14.11 8.15,26.77 22.05,28.77z"/>
   <path class="fil0 str0" d="M355.56 383.63c10.61,9.19 26.84,8.6 36.17,-2.18 9.33,-10.78 7.62,-26.92 -3,-36.12 -10.61,-9.19 -26.84,-8.59 -36.17,2.18 -9.33,10.78 -7.62,26.92 3,36.12z"/>
   <path class="fil0 str0" d="M298.75 403.17c3.96,13.47 17.93,21.74 31.61,17.72 13.68,-4.02 20.96,-18.53 17.01,-32 -3.96,-13.48 -17.93,-21.74 -31.61,-17.73 -13.68,4.02 -20.96,18.53 -17.01,32z"/>
   <path class="fil0 str0" d="M240.4 388.89c-3.96,13.47 3.33,27.98 17.01,32 13.68,4.02 27.65,-4.25 31.61,-17.72 3.95,-13.48 -3.33,-27.99 -17.01,-32 -13.68,-4.02 -27.65,4.25 -31.61,17.73z"/>
   <path class="fil0 str0" d="M199.03 345.33c-10.61,9.2 -12.33,25.34 -3,36.12 9.33,10.78 25.56,11.37 36.18,2.18 10.61,-9.2 12.33,-25.34 2.99,-36.12 -9.33,-10.77 -25.56,-11.37 -36.17,-2.18z"/>
   <path class="fil0 str0" d="M187.78 286.33c-13.9,2 -24.07,14.65 -22.05,28.76 2.03,14.11 15.36,23.39 29.26,21.39 13.9,-2 24.07,-14.65 22.05,-28.77 -2.03,-14.11 -15.36,-23.38 -29.26,-21.39z"/>
   <path class="fil0 str0" d="M210.21 230.6c-12.77,-5.83 -28.17,-0.69 -34.1,12.28 -5.92,12.96 0.28,27.97 13.05,33.81 12.77,5.83 28.17,0.69 34.09,-12.28 5.93,-12.97 -0.28,-27.98 -13.05,-33.81z"/>
   <path class="fil0 str0" d="M259.21 195.85c-7.59,-11.81 -23.33,-15.81 -35.32,-8.1 -12,7.71 -14.9,23.69 -7.3,35.5 7.59,11.81 23.33,15.81 35.32,8.11 11.99,-7.71 14.89,-23.69 7.3,-35.5z"/>
   <path class="fil0 str0" d="M319.22 193.11c0,-14.04 -11.08,-25.92 -25.33,-25.92 -14.26,0 -25.33,11.87 -25.33,25.92 0,14.04 11.08,25.91 25.33,25.91 14.26,0 25.33,-11.87 25.33,-25.91z"/>
   <path class="fil0 str0" d="M97.37 317.65c-11.63,1.67 -22.78,-6.09 -24.48,-17.9 -1.7,-11.81 6.82,-22.4 18.45,-24.07 11.63,-1.67 22.79,6.09 24.48,17.9 1.7,11.81 -6.81,22.4 -18.45,24.07z"/>
   <path class="fil0 str0" d="M140.72 317.65c-11.63,1.67 -22.79,-6.09 -24.48,-17.9 -1.7,-11.81 6.81,-22.4 18.45,-24.07 11.63,-1.67 22.78,6.09 24.48,17.9 1.7,11.81 -6.82,22.4 -18.45,24.07z"/>
   <path class="fil0 str0" d="M47.7 317.65c11.63,1.67 22.78,-6.09 24.48,-17.9 1.7,-11.81 -6.81,-22.4 -18.45,-24.07 -11.63,-1.67 -22.78,6.09 -24.48,17.9 -1.7,11.81 6.81,22.4 18.45,24.07z"/>
   <path class="fil0 str0" d="M540.07 317.65c-11.63,1.67 -22.79,-6.09 -24.48,-17.9 -1.7,-11.81 6.81,-22.4 18.45,-24.07 11.63,-1.67 22.78,6.09 24.48,17.9 1.7,11.81 -6.81,22.4 -18.44,24.07z"/>
   <path class="fil0 str0" d="M447.06 317.65c11.63,1.67 22.78,-6.09 24.48,-17.9 1.7,-11.81 -6.81,-22.4 -18.45,-24.07 -11.63,-1.67 -22.78,6.09 -24.48,17.9 -1.7,11.81 6.82,22.4 18.45,24.07z"/>
   <path class="fil0 str0" d="M490.41 317.65c11.63,1.67 22.78,-6.09 24.48,-17.9 1.7,-11.81 -6.82,-22.4 -18.45,-24.07 -11.63,-1.67 -22.79,6.09 -24.48,17.9 -1.7,11.81 6.81,22.4 18.45,24.07z"/>
   <path class="fil1 str1" d="M293.89 222.87c-40.76,0 -73.8,33.04 -73.8,73.8 0,40.76 33.04,73.8 73.8,73.8 40.76,0 73.8,-33.04 73.8,-73.8 0,-40.76 -33.04,-73.8 -73.8,-73.8z"/>
   <path class="fil0 str2" d="M293.89 163.34c-73.63,0 -133.32,59.69 -133.32,133.32 0,73.63 59.69,133.32 133.32,133.32 73.63,0 133.32,-59.69 133.32,-133.32 0,-73.63 -59.69,-133.32 -133.32,-133.32z"/>
   <path class="fil0 str2" d="M54.73 343.62c-25.93,0 -46.95,-21.02 -46.95,-46.95 0,-25.93 21.02,-46.95 46.95,-46.95"/>
   <path class="fil0 str2" d="M533.04 343.62c25.93,0 46.95,-21.02 46.95,-46.95 0,-25.93 -21.02,-46.95 -46.95,-46.95"/>
   <line class="fil0 str2" x1="533.04" y1="249.71" x2="418.67" y2= "249.71" />
   <line class="fil0 str2" x1="169.11" y1="249.71" x2="54.73" y2= "249.71" />
   <line class="fil0 str2" x1="54.73" y1="343.62" x2="169.11" y2= "343.62" />
   <line class="fil0 str2" x1="418.67" y1="343.62" x2="533.04" y2= "343.62" />
  </g>
 </g>
</svg>
