<svg xmlns="http://www.w3.org/2000/svg" xml:space="preserve" width="0.590551in" height="0.590551in" version="1.1" style="shape-rendering:geometricPrecision; text-rendering:geometricPrecision; image-rendering:optimizeQuality; fill-rule:evenodd; clip-rule:evenodd"
viewBox="0 0 590.55 590.55"
 xmlns:xlink="http://www.w3.org/1999/xlink"
 xmlns:xodm="http://www.corel.com/coreldraw/odm/2003">
 <defs>
  <style type="text/css">
   <![CDATA[
    .str0 {stroke:#9f7d48;stroke-width:7.87;stroke-miterlimit:2.61313}
    .fil0 {fill:none}
   ]]>
  </style>
 </defs>
 
 <g id="Layer_x0020_1_0">
  
  <g id="_1737174850560">
   <path class="fil0 str0" d="M293.89 261.54c51.44,0 102.9,0 154.34,0 25.73,0 51.46,0 77.17,0 28.48,0 57.07,-3.4 57.07,35.14 0,38.52 -28.6,35.11 -57.06,35.11 -25.71,0 -51.43,0 -77.14,0 -51.46,0 -102.93,0 -154.39,0 -51.44,0 -102.89,0 -154.34,0 -25.73,0 -51.44,0 -77.17,0 -28.48,0 -57.07,3.41 -57.07,-35.11 0,-38.54 28.6,-35.14 57.07,-35.14 25.7,0 51.41,0 77.12,0 51.47,0 102.93,0 154.39,0l0.01 0z"/>
   <path class="fil0 str0" d="M465.79 275.11c15.34,0 21.69,6.31 21.69,21.57 0,15.24 -6.35,21.56 -21.69,21.56 -15.32,0 -21.67,-6.31 -21.67,-21.56 0,-15.26 6.35,-21.57 21.67,-21.57z"/>
   <path class="fil0 str0" d="M509.17 275.11c-15.34,0 -21.69,6.31 -21.69,21.57 0,15.24 6.35,21.56 21.69,21.56 15.32,0 21.67,-6.31 21.67,-21.56 0,-15.26 -6.35,-21.57 -21.67,-21.57z"/>
   <path class="fil0 str0" d="M552.52 275.11c15.32,0 21.67,6.31 21.67,21.57 0,15.24 -6.35,21.56 -21.67,21.56 -15.34,0 -21.69,-6.31 -21.69,-21.56 0,-15.26 6.35,-21.57 21.69,-21.57z"/>
   <path class="fil0 str0" d="M335.72 275.11c-15.33,0 -21.69,6.31 -21.69,21.57 0,15.24 6.35,21.56 21.69,21.56 15.32,0 21.69,-6.31 21.69,-21.56 0,-15.26 -6.37,-21.57 -21.69,-21.57z"/>
   <path class="fil0 str0" d="M379.08 275.11c15.34,0 21.67,6.31 21.67,21.57 0,15.24 -6.33,21.56 -21.67,21.56 -15.33,0 -21.67,-6.31 -21.67,-21.56 0,-15.26 6.33,-21.57 21.67,-21.57z"/>
   <path class="fil0 str0" d="M422.43 275.11c-15.32,0 -21.69,6.31 -21.69,21.57 0,15.24 6.36,21.56 21.69,21.56 15.34,0 21.69,-6.31 21.69,-21.56 0,-15.26 -6.35,-21.57 -21.69,-21.57z"/>
   <path class="fil0 str0" d="M292.36 275.11c15.32,0 21.67,6.31 21.67,21.57 0,15.24 -6.35,21.56 -21.67,21.56 -15.32,0 -21.67,-6.31 -21.67,-21.56 0,-15.26 6.35,-21.57 21.67,-21.57z"/>
   <path class="fil0 str0" d="M205.65 275.11c15.33,0 21.69,6.31 21.69,21.57 0,15.24 -6.35,21.56 -21.69,21.56 -15.32,0 -21.67,-6.31 -21.67,-21.56 0,-15.26 6.35,-21.57 21.67,-21.57z"/>
   <path class="fil0 str0" d="M249 275.11c-15.32,0 -21.67,6.31 -21.67,21.57 0,15.24 6.35,21.56 21.67,21.56 15.33,0 21.69,-6.31 21.69,-21.56 0,-15.26 -6.35,-21.57 -21.69,-21.57z"/>
   <path class="fil0 str0" d="M118.93 275.11c15.32,0 21.69,6.31 21.69,21.57 0,15.24 -6.36,21.56 -21.69,21.56 -15.32,0 -21.69,-6.31 -21.69,-21.56 0,-15.26 6.37,-21.57 21.69,-21.57z"/>
   <path class="fil0 str0" d="M162.29 275.11c-15.34,0 -21.67,6.31 -21.67,21.57 0,15.24 6.33,21.56 21.67,21.56 15.33,0 21.69,-6.31 21.69,-21.56 0,-15.26 -6.35,-21.57 -21.69,-21.57z"/>
   <path class="fil0 str0" d="M32.2 275.11c15.34,0 21.69,6.31 21.69,21.57 0,15.24 -6.35,21.56 -21.69,21.56 -15.32,0 -21.67,-6.31 -21.67,-21.56 0,-15.26 6.35,-21.57 21.67,-21.57z"/>
   <path class="fil0 str0" d="M75.57 275.11c-15.34,0 -21.69,6.31 -21.69,21.57 0,15.24 6.35,21.56 21.69,21.56 15.32,0 21.67,-6.31 21.67,-21.56 0,-15.26 -6.35,-21.57 -21.67,-21.57z"/>
  </g>
 </g>
</svg>
