<svg xmlns="http://www.w3.org/2000/svg" xml:space="preserve" width="0.590551in" height="0.590551in" version="1.1" style="shape-rendering:geometricPrecision; text-rendering:geometricPrecision; image-rendering:optimizeQuality; fill-rule:evenodd; clip-rule:evenodd"
viewBox="0 0 590.55 590.55"
 xmlns:xlink="http://www.w3.org/1999/xlink"
 xmlns:xodm="http://www.corel.com/coreldraw/odm/2003">
 <defs>
  <style type="text/css">
   <![CDATA[
    .str0 {stroke:#9f7d48;stroke-width:7.87;stroke-miterlimit:2.61313}
    .fil0 {fill:none}
   ]]>
  </style>
 </defs>
 
 <g id="Layer_x0020_1_0">
  
  <g id="_1737174852384">
   <path class="fil0 str0" d="M293.89 262.15c50.54,0 101.1,0 151.64,0 25.28,0 50.56,0 75.82,0 27.98,0 56.07,-3.35 56.07,34.51 0,37.85 -28.1,34.51 -56.06,34.51 -25.26,0 -50.53,0 -75.79,0 -50.56,0 -101.13,0 -151.69,0 -50.54,0 -101.09,0 -151.64,0 -25.28,0 -50.54,0 -75.82,0 -27.98,0 -56.07,3.35 -56.07,-34.51 0,-37.85 28.1,-34.51 56.07,-34.51 25.25,0 50.51,0 75.78,0 50.57,0 101.13,0 151.69,0z"/>
   <path class="fil0 str0" d="M399.8 275.47c-14.97,0 -21.18,6.2 -21.18,21.19 0,14.97 6.2,21.19 21.18,21.19 14.99,0 21.19,-6.22 21.19,-21.19 0,-14.99 -6.2,-21.19 -21.19,-21.19z"/>
   <path class="fil0 str0" d="M442.19 275.47c14.97,0 21.18,6.2 21.18,21.19 0,14.97 -6.2,21.19 -21.18,21.19 -14.99,0 -21.19,-6.22 -21.19,-21.19 0,-14.99 6.2,-21.19 21.19,-21.19z"/>
   <path class="fil0 str0" d="M484.56 275.47c-14.99,0 -21.19,6.2 -21.19,21.19 0,14.97 6.2,21.19 21.19,21.19 14.97,0 21.19,-6.22 21.19,-21.19 0,-14.99 -6.22,-21.19 -21.19,-21.19z"/>
   <path class="fil0 str0" d="M357.45 275.47c14.97,0 21.18,6.2 21.18,21.19 0,14.97 -6.2,21.19 -21.18,21.19 -14.99,0 -21.19,-6.22 -21.19,-21.19 0,-14.99 6.2,-21.19 21.19,-21.19z"/>
   <path class="fil0 str0" d="M272.71 275.47c14.97,0 21.18,6.2 21.18,21.19 0,14.97 -6.2,21.19 -21.18,21.19 -14.98,0 -21.19,-6.22 -21.19,-21.19 0,-14.99 6.22,-21.19 21.19,-21.19z"/>
   <path class="fil0 str0" d="M315.07 275.47c-14.98,0 -21.18,6.2 -21.18,21.19 0,14.97 6.2,21.19 21.18,21.19 14.99,0 21.19,-6.22 21.19,-21.19 0,-14.99 -6.2,-21.19 -21.19,-21.19z"/>
   <path class="fil0 str0" d="M187.97 275.47c14.97,0 21.18,6.2 21.18,21.19 0,14.97 -6.2,21.19 -21.18,21.19 -14.99,0 -21.19,-6.22 -21.19,-21.19 0,-14.99 6.2,-21.19 21.19,-21.19z"/>
   <path class="fil0 str0" d="M230.34 275.47c-14.99,0 -21.19,6.2 -21.19,21.19 0,14.97 6.2,21.19 21.19,21.19 14.97,0 21.18,-6.22 21.18,-21.19 0,-14.99 -6.2,-21.19 -21.18,-21.19z"/>
   <path class="fil0 str0" d="M103.22 275.47c14.99,0 21.19,6.2 21.19,21.19 0,14.97 -6.2,21.19 -21.19,21.19 -14.97,0 -21.18,-6.22 -21.18,-21.19 0,-14.99 6.2,-21.19 21.18,-21.19z"/>
   <path class="fil0 str0" d="M145.6 275.47c-14.99,0 -21.19,6.2 -21.19,21.19 0,14.97 6.2,21.19 21.19,21.19 14.97,0 21.18,-6.22 21.18,-21.19 0,-14.99 -6.2,-21.19 -21.18,-21.19z"/>
  </g>
 </g>
</svg>
