<svg xmlns="http://www.w3.org/2000/svg" xml:space="preserve" width="0.590551in" height="0.590551in" version="1.1" style="shape-rendering:geometricPrecision; text-rendering:geometricPrecision; image-rendering:optimizeQuality; fill-rule:evenodd; clip-rule:evenodd"
viewBox="0 0 590.55 590.55"
 xmlns:xlink="http://www.w3.org/1999/xlink"
 xmlns:xodm="http://www.corel.com/coreldraw/odm/2003">
 <defs>
  <style type="text/css">
   <![CDATA[
    .str0 {stroke:#9f7d48;stroke-width:7.87;stroke-miterlimit:2.61313}
    .str1 {stroke:#9f7d48;stroke-width:3.94;stroke-miterlimit:2.61313}
    .fil0 {fill:none}
   ]]>
  </style>
 </defs>
 
 <g id="Layer_x0020_1_0">
  
  <g id="_1737226852080">
   <line class="fil0 str0" x1="418.26" y1="343.48" x2="532.27" y2= "343.48" />
   <line class="fil0 str0" x1="55.51" y1="343.48" x2="169.51" y2= "343.48" />
   <line class="fil0 str0" x1="169.51" y1="249.87" x2="55.51" y2= "249.87" />
   <line class="fil0 str0" x1="532.27" y1="249.87" x2="418.26" y2= "249.87" />
   <path class="fil0 str0" d="M532.27 343.48c33.09,0 46.81,-13.71 46.81,-46.8 0,-33.09 -13.7,-46.81 -46.81,-46.81"/>
   <path class="fil0 str0" d="M55.51 343.48c-33.11,0 -46.81,-13.71 -46.81,-46.8 0,-33.09 13.7,-46.81 46.81,-46.81"/>
   <path class="fil0 str0" d="M293.88 163.77c-73.39,0 -132.89,59.5 -132.89,132.9 0,73.4 59.5,132.89 132.89,132.89 73.4,0 132.89,-59.49 132.89,-132.89 0,-73.4 -59.49,-132.9 -132.89,-132.9z"/>
   <polyline class="fil0 str0" points="348.19,242.34 317.38,242.7 293.88,219.84 "/>
   <line class="fil0 str0" x1="317.38" y1="242.7" x2="324.54" y2= "226.23" />
   <line class="fil0 str0" x1="317.38" y1="242.7" x2="323.87" y2= "266.68" />
   <line class="fil0 str0" x1="317.38" y1="242.7" x2="293.88" y2= "254.78" />
   <line class="fil0 str0" x1="323.87" y1="266.68" x2="293.88" y2= "254.78" />
   <polyline class="fil0 str0" points="348.19,351.01 347.85,320.18 370.69,296.68 "/>
   <line class="fil0 str0" x1="347.85" y1="320.18" x2="364.31" y2= "327.35" />
   <line class="fil0 str0" x1="347.85" y1="320.18" x2="323.87" y2= "326.66" />
   <line class="fil0 str0" x1="347.85" y1="320.18" x2="335.76" y2= "296.68" />
   <line class="fil0 str0" x1="323.87" y1="326.66" x2="335.76" y2= "296.68" />
   <line class="fil0 str0" x1="323.87" y1="266.68" x2="335.76" y2= "296.68" />
   <line class="fil0 str0" x1="347.85" y1="273.17" x2="335.76" y2= "296.68" />
   <line class="fil0 str0" x1="347.85" y1="273.17" x2="323.87" y2= "266.68" />
   <line class="fil0 str0" x1="347.85" y1="273.17" x2="364.31" y2= "266" />
   <polyline class="fil0 str0" points="348.19,242.34 347.85,273.17 370.69,296.68 "/>
   <line class="fil0 str0" x1="323.87" y1="326.66" x2="293.88" y2= "338.56" />
   <line class="fil0 str0" x1="317.38" y1="350.65" x2="293.88" y2= "338.56" />
   <line class="fil0 str0" x1="317.38" y1="350.65" x2="323.87" y2= "326.66" />
   <line class="fil0 str0" x1="317.38" y1="350.65" x2="324.54" y2= "367.11" />
   <polyline class="fil0 str0" points="348.19,351.01 317.38,350.65 293.88,373.5 "/>
   <polyline class="fil0 str0" points="239.56,351.01 270.39,350.65 293.88,373.5 "/>
   <line class="fil0 str0" x1="270.39" y1="350.65" x2="263.22" y2= "367.11" />
   <line class="fil0 str0" x1="270.39" y1="350.65" x2="263.9" y2= "326.66" />
   <line class="fil0 str0" x1="270.39" y1="350.65" x2="293.88" y2= "338.56" />
   <line class="fil0 str0" x1="263.9" y1="326.66" x2="293.88" y2= "338.56" />
   <polyline class="fil0 str0" points="239.56,242.34 239.9,273.17 217.06,296.68 "/>
   <line class="fil0 str0" x1="239.9" y1="273.17" x2="223.45" y2= "266" />
   <line class="fil0 str0" x1="239.9" y1="273.17" x2="263.9" y2= "266.68" />
   <line class="fil0 str0" x1="239.9" y1="273.17" x2="251.99" y2= "296.68" />
   <line class="fil0 str0" x1="263.9" y1="266.68" x2="251.99" y2= "296.68" />
   <line class="fil0 str0" x1="263.9" y1="326.66" x2="251.99" y2= "296.68" />
   <line class="fil0 str0" x1="239.9" y1="320.18" x2="251.99" y2= "296.68" />
   <line class="fil0 str0" x1="239.9" y1="320.18" x2="263.9" y2= "326.66" />
   <line class="fil0 str0" x1="239.9" y1="320.18" x2="223.45" y2= "327.35" />
   <polyline class="fil0 str0" points="239.56,351.01 239.9,320.18 217.06,296.68 "/>
   <line class="fil0 str0" x1="263.9" y1="266.68" x2="293.88" y2= "254.78" />
   <line class="fil0 str0" x1="270.39" y1="242.7" x2="293.88" y2= "254.78" />
   <line class="fil0 str0" x1="270.39" y1="242.7" x2="263.9" y2= "266.68" />
   <line class="fil0 str0" x1="270.39" y1="242.7" x2="263.22" y2= "226.23" />
   <polyline class="fil0 str0" points="239.56,242.34 270.39,242.7 293.88,219.84 "/>
   <path class="fil0 str0" d="M293.88 219.84c-42.42,0 -76.82,34.4 -76.82,76.83 0,42.42 34.4,76.83 76.82,76.83 42.42,0 76.81,-34.41 76.81,-76.83 0,-42.44 -34.4,-76.83 -76.81,-76.83z"/>
   <path class="fil0 str1" d="M318.43 191.81c0,-17.37 -7.2,-24.55 -24.55,-24.55 -17.36,0 -24.56,7.18 -24.56,24.55 0,17.37 7.2,24.55 24.56,24.55 17.36,0 24.55,-7.18 24.55,-24.55z"/>
   <path class="fil0 str1" d="M262.72 193.57c-8.67,-15.04 -18.52,-17.67 -33.55,-8.99 -15.04,8.69 -17.68,18.52 -9,33.55 8.69,15.04 18.5,17.68 33.56,9 15.04,-8.68 17.67,-18.5 8.99,-33.56l-0 0z"/>
   <path class="fil0 str1" d="M215.34 222.96c-15.04,-8.69 -24.86,-6.05 -33.56,9 -8.67,15.02 -6.05,24.85 9,33.54 15.03,8.69 24.88,6.07 33.54,-8.99 8.68,-15.04 6.06,-24.87 -8.99,-33.56l0.01 0.01z"/>
   <path class="fil0 str1" d="M189.02 272.1c-17.37,0 -24.57,7.2 -24.57,24.57 0,17.37 7.19,24.55 24.57,24.55 17.37,0 24.55,-7.18 24.55,-24.55 0,-17.37 -7.18,-24.57 -24.55,-24.57z"/>
   <path class="fil0 str1" d="M190.79 327.83c-15.04,8.69 -17.67,18.52 -9,33.56 8.69,15.04 18.52,17.67 33.56,8.98 15.04,-8.69 17.67,-18.5 8.99,-33.56 -8.66,-15.02 -18.5,-17.67 -33.54,-8.99l-0.01 0.01z"/>
   <path class="fil0 str1" d="M220.18 375.2c-8.69,15.04 -6.05,24.87 9,33.56 15.03,8.69 24.87,6.05 33.55,-8.99 8.69,-15.04 6.06,-24.88 -8.99,-33.56 -15.04,-8.69 -24.87,-6.05 -33.56,8.99l0 0z"/>
   <path class="fil0 str1" d="M269.32 401.55c0,17.36 7.2,24.56 24.56,24.56 17.36,0 24.55,-7.2 24.55,-24.56 0,-17.37 -7.2,-24.57 -24.55,-24.57 -17.36,0 -24.56,7.2 -24.56,24.57z"/>
   <path class="fil0 str1" d="M325.03 399.77c8.69,15.03 18.52,17.67 33.56,8.99 15.02,-8.69 17.67,-18.52 8.98,-33.56 -8.68,-15.03 -18.5,-17.67 -33.56,-8.99 -15.02,8.68 -17.67,18.5 -8.99,33.56l0.01 0z"/>
   <path class="fil0 str1" d="M372.4 370.37c15.04,8.69 24.87,6.07 33.56,-8.98 8.69,-15.04 6.05,-24.87 -9,-33.56 -15.03,-8.69 -24.86,-6.05 -33.54,8.99 -8.69,15.04 -6.07,24.87 8.99,33.56l-0.01 -0.01z"/>
   <path class="fil0 str1" d="M398.73 321.23c17.37,0 24.57,-7.18 24.57,-24.55 0,-17.37 -7.19,-24.57 -24.57,-24.57 -17.37,0 -24.55,7.2 -24.55,24.57 0,17.37 7.18,24.55 24.55,24.55z"/>
   <path class="fil0 str1" d="M396.96 265.51c15.04,-8.69 17.68,-18.52 9,-33.54 -8.69,-15.04 -18.52,-17.68 -33.56,-9 -15.04,8.68 -17.67,18.5 -8.99,33.56 8.68,15.04 18.5,17.67 33.54,8.99l0.01 -0.01z"/>
   <path class="fil0 str1" d="M367.57 218.13c8.69,-15.03 6.05,-24.85 -8.98,-33.55 -15.04,-8.69 -24.87,-6.06 -33.56,8.99 -8.69,15.04 -6.05,24.88 8.99,33.56 15.04,8.69 24.87,6.05 33.56,-9l-0.01 -0z"/>
  </g>
 </g>
</svg>
