<svg xmlns="http://www.w3.org/2000/svg" xml:space="preserve" width="0.590551in" height="0.590551in" version="1.1" style="shape-rendering:geometricPrecision; text-rendering:geometricPrecision; image-rendering:optimizeQuality; fill-rule:evenodd; clip-rule:evenodd"
viewBox="0 0 590.55 590.55"
 xmlns:xlink="http://www.w3.org/1999/xlink"
 xmlns:xodm="http://www.corel.com/coreldraw/odm/2003">
 <defs>
  <style type="text/css">
   <![CDATA[
    .str0 {stroke:#9f7d48;stroke-width:9.84;stroke-miterlimit:4}
    .str1 {stroke:#9f7d48;stroke-width:7.87;stroke-miterlimit:4}
    .fil0 {fill:none;fill-rule:nonzero}
   ]]>
  </style>
 </defs>
 
 <g id="Layer_x0020_1_0">
  
  <g id="_2055950192864">
   <line class="fil0 str0" x1="254.41" y1="298.75" x2="9.93" y2= "366.82" />
   <path class="fil0 str1" d="M407.19 130.72c-25.96,-0.02 -47.01,21 -47.03,46.96 -0.03,25.96 21,47.01 46.95,47.03 25.95,0.02 47.01,-21 47.03,-46.95 0.03,-25.95 -21,-47.02 -46.95,-47.03z"/>
   <path class="fil0 str1" d="M494.85 157.28c-21.85,-0.41 -39.89,16.99 -40.28,38.84 -0.4,21.85 16.98,39.88 38.83,40.28 21.85,0.39 39.89,-16.98 40.28,-38.84 0.41,-21.85 -16.98,-39.88 -38.83,-40.28z"/>
   <path class="fil0 str1" d="M486.1 353.75c-21.95,0.42 -39.41,18.56 -38.98,40.52 0.42,21.95 18.56,39.41 40.51,38.99 21.96,-0.42 39.41,-18.56 38.99,-40.52 -0.42,-21.95 -18.56,-39.41 -40.52,-38.99z"/>
   <path class="fil0 str1" d="M535.61 298.07c-19.81,0.65 -35.36,17.24 -34.71,37.06 0.65,19.81 17.24,35.36 37.06,34.72 19.83,-0.65 35.37,-17.24 34.72,-37.06 -0.65,-19.83 -17.24,-35.36 -37.06,-34.72z"/>
   <path class="fil0 str1" d="M540.36 222.98c-19.91,-0.5 -36.47,15.24 -36.96,35.15 -0.5,19.93 15.24,36.47 35.16,36.97 19.92,0.5 36.47,-15.24 36.97,-35.16 0.49,-19.92 -15.24,-36.47 -35.17,-36.96z"/>
   <path class="fil0 str1" d="M398.55 359.87c-25.87,0 -46.84,20.98 -46.84,46.85 0,25.87 20.97,46.84 46.84,46.84 25.87,0 46.85,-20.97 46.85,-46.84 0,-25.87 -20.98,-46.85 -46.85,-46.85z"/>
   <path class="fil0 str1" d="M320.58 289.5c-29.43,0 -53.31,23.87 -53.31,53.32 0,29.44 23.88,53.32 53.31,53.32 29.45,0 53.32,-23.88 53.32,-53.32 0,-29.45 -23.87,-53.32 -53.32,-53.32z"/>
   <path class="fil0 str1" d="M324.04 181.97c-29.54,0 -53.47,23.94 -53.47,53.48 0,29.54 23.93,53.48 53.47,53.48 29.53,0 53.48,-23.94 53.48,-53.48 0,-29.54 -23.94,-53.48 -53.48,-53.48z"/>
   <path class="fil0 str0" d="M579.9 292.71c0,-89.91 -72.89,-162.8 -162.8,-162.8 -89.91,0 -162.8,72.89 -162.8,162.8 0,89.91 72.88,162.8 162.8,162.8 89.91,0 162.8,-72.89 162.8,-162.8z"/>
   <path class="fil0 str0" d="M509.04 292.71c0,-40.13 -32.54,-72.67 -72.67,-72.67 -40.14,0 -72.67,32.54 -72.67,72.67 0,40.14 32.53,72.67 72.67,72.67 40.13,0 72.67,-32.53 72.67,-72.67z"/>
  </g>
 </g>
</svg>
