<svg xmlns="http://www.w3.org/2000/svg" xml:space="preserve" width="0.590551in" height="0.590551in" version="1.1" style="shape-rendering:geometricPrecision; text-rendering:geometricPrecision; image-rendering:optimizeQuality; fill-rule:evenodd; clip-rule:evenodd"
viewBox="0 0 590.55 590.55"
 xmlns:xlink="http://www.w3.org/1999/xlink"
 xmlns:xodm="http://www.corel.com/coreldraw/odm/2003">
 <defs>
  <style type="text/css">
   <![CDATA[
    .str1 {stroke:#9f7d48;stroke-width:7.87;stroke-miterlimit:4}
    .str0 {stroke:#9f7d48;stroke-width:3.94;stroke-miterlimit:4}
    .fil0 {fill:none;fill-rule:nonzero}
   ]]>
  </style>
 </defs>
 
 <g id="Layer_x0020_1_0">
  
  <g id="_2532847506112">
   <polyline class="fil0 str0" points="347.18,312.2 316.94,312.54 293.89,290.13 "/>
   <line class="fil0 str0" x1="316.94" y1="312.54" x2="323.98" y2= "296.39" />
   <line class="fil0 str0" x1="316.94" y1="312.54" x2="323.31" y2= "336.07" />
   <line class="fil0 str0" x1="316.94" y1="312.54" x2="293.89" y2= "324.41" />
   <line class="fil0 str0" x1="323.31" y1="336.07" x2="293.89" y2= "324.41" />
   <polyline class="fil0 str0" points="347.18,418.79 346.83,388.55 369.25,365.49 "/>
   <line class="fil0 str0" x1="346.83" y1="388.55" x2="362.99" y2= "395.58" />
   <line class="fil0 str0" x1="346.83" y1="388.55" x2="323.31" y2= "394.92" />
   <line class="fil0 str0" x1="346.83" y1="388.55" x2="334.98" y2= "365.49" />
   <line class="fil0 str0" x1="323.31" y1="394.92" x2="334.98" y2= "365.49" />
   <line class="fil0 str0" x1="323.31" y1="336.07" x2="334.98" y2= "365.49" />
   <line class="fil0 str0" x1="346.83" y1="342.44" x2="334.98" y2= "365.49" />
   <line class="fil0 str0" x1="346.83" y1="342.44" x2="323.31" y2= "336.07" />
   <line class="fil0 str0" x1="346.83" y1="342.44" x2="362.99" y2= "335.41" />
   <polyline class="fil0 str0" points="347.18,312.2 346.83,342.44 369.25,365.49 "/>
   <line class="fil0 str0" x1="323.31" y1="394.92" x2="293.89" y2= "406.58" />
   <line class="fil0 str0" x1="316.94" y1="418.44" x2="293.89" y2= "406.58" />
   <line class="fil0 str0" x1="316.94" y1="418.44" x2="323.31" y2= "394.92" />
   <line class="fil0 str0" x1="316.94" y1="418.44" x2="323.98" y2= "434.59" />
   <polyline class="fil0 str0" points="347.18,418.79 316.94,418.44 293.89,440.86 "/>
   <polyline class="fil0 str0" points="240.59,418.79 270.83,418.44 293.89,440.86 "/>
   <line class="fil0 str0" x1="270.83" y1="418.44" x2="263.8" y2= "434.59" />
   <line class="fil0 str0" x1="270.83" y1="418.44" x2="264.46" y2= "394.92" />
   <line class="fil0 str0" x1="270.83" y1="418.44" x2="293.89" y2= "406.58" />
   <line class="fil0 str0" x1="264.46" y1="394.92" x2="293.89" y2= "406.58" />
   <polyline class="fil0 str0" points="240.59,312.2 240.94,342.44 218.52,365.49 "/>
   <line class="fil0 str0" x1="240.94" y1="342.44" x2="224.78" y2= "335.41" />
   <line class="fil0 str0" x1="240.94" y1="342.44" x2="264.46" y2= "336.07" />
   <line class="fil0 str0" x1="240.94" y1="342.44" x2="252.8" y2= "365.49" />
   <line class="fil0 str0" x1="264.46" y1="336.07" x2="252.8" y2= "365.49" />
   <line class="fil0 str0" x1="264.46" y1="394.92" x2="252.8" y2= "365.49" />
   <line class="fil0 str0" x1="240.94" y1="388.55" x2="252.8" y2= "365.49" />
   <line class="fil0 str0" x1="240.94" y1="388.55" x2="264.46" y2= "394.92" />
   <line class="fil0 str0" x1="240.94" y1="388.55" x2="224.78" y2= "395.58" />
   <polyline class="fil0 str0" points="240.59,418.79 240.94,388.55 218.52,365.49 "/>
   <line class="fil0 str0" x1="264.46" y1="336.07" x2="293.89" y2= "324.41" />
   <line class="fil0 str0" x1="270.83" y1="312.54" x2="293.89" y2= "324.41" />
   <line class="fil0 str0" x1="270.83" y1="312.54" x2="264.46" y2= "336.07" />
   <line class="fil0 str0" x1="270.83" y1="312.54" x2="263.8" y2= "296.39" />
   <polyline class="fil0 str0" points="240.59,312.2 270.83,312.54 293.89,290.13 "/>
   <path class="fil0 str1" d="M272.15 231.07c-4.64,-13.7 -12.51,-43.11 -14.38,-66.94 -1.68,-21.36 1.46,-38.22 11.99,-46.4 6.01,-4.67 14.42,-6.5 23.95,-6.3 9.53,-0.2 17.94,1.64 23.97,6.3 10.55,8.17 13.77,25.04 12.17,46.4 -1.79,23.82 -9.59,53.24 -14.23,66.94"/>
   <line class="fil0 str1" x1="326.11" y1="190.52" x2="419.33" y2= "91.67" />
   <line class="fil0 str1" x1="260.96" y1="187.26" x2="170.81" y2= "91.67" />
   <path class="fil0 str1" d="M293.89 290.13c-41.63,0 -75.37,33.74 -75.37,75.37 0,41.63 33.74,75.37 75.37,75.37 41.63,0 75.37,-33.74 75.37,-75.37 0,-41.62 -33.74,-75.37 -75.37,-75.37z"/>
   <path class="fil0 str0" d="M321.46 259.73c0,-15.29 -12.06,-28.21 -27.58,-28.21 -15.52,0 -27.58,12.93 -27.58,28.21 0,15.29 12.06,28.21 27.58,28.21 15.52,0 27.58,-12.92 27.58,-28.21z"/>
   <path class="fil0 str0" d="M259.48 261.88c-8.11,-12.63 -24.94,-16.9 -37.76,-8.66 -12.81,8.24 -15.92,25.31 -7.8,37.94 8.11,12.63 24.94,16.9 37.75,8.66 12.82,-8.24 15.92,-25.31 7.81,-37.94z"/>
   <path class="fil0 str0" d="M209.12 296.5c-13.89,-6.34 -30.64,-0.75 -37.07,13.35 -6.44,14.1 0.3,30.42 14.19,36.76 13.89,6.34 30.64,0.75 37.08,-13.35 6.44,-14.1 -0.3,-30.42 -14.19,-36.76z"/>
   <path class="fil0 str0" d="M185.45 354.51c-14.43,2.07 -25,15.21 -22.89,29.86 2.11,14.65 15.94,24.28 30.38,22.21 14.43,-2.07 24.99,-15.22 22.89,-29.87 -2.11,-14.65 -15.94,-24.28 -30.37,-22.2z"/>
   <path class="fil0 str0" d="M195.94 413.97c-11.52,9.98 -13.39,27.51 -3.25,39.2 10.13,11.7 27.75,12.35 39.27,2.37 11.52,-9.98 13.39,-27.52 3.25,-39.21 -10.13,-11.7 -27.75,-12.35 -39.27,-2.36z"/>
   <path class="fil0 str0" d="M238.02 459.32c-4.24,14.45 3.57,30.01 18.24,34.32 14.67,4.31 29.66,-4.56 33.9,-19.01 4.24,-14.45 -3.57,-30.01 -18.24,-34.32 -14.67,-4.31 -29.66,4.56 -33.9,19.01z"/>
   <path class="fil0 str0" d="M297.95 474.53c4.19,14.27 18.98,23.02 33.46,18.77 14.48,-4.25 22.19,-19.61 18,-33.88 -4.19,-14.26 -18.98,-23.02 -33.46,-18.77 -14.48,4.25 -22.19,19.61 -18,33.88z"/>
   <path class="fil0 str0" d="M355.76 455.6c11.56,10.01 29.22,9.36 39.39,-2.37 10.16,-11.73 8.29,-29.31 -3.26,-39.32 -11.56,-10.01 -29.22,-9.36 -39.39,2.37 -10.16,11.73 -8.29,29.31 3.26,39.32z"/>
   <path class="fil0 str0" d="M394.72 407.36c14.86,2.14 29.11,-7.78 31.28,-22.87 2.17,-15.09 -8.71,-28.62 -23.57,-30.76 -14.86,-2.13 -29.11,7.78 -31.28,22.87 -2.17,15.09 8.71,28.62 23.57,30.76z"/>
   <path class="fil0 str0" d="M401.3 346.1c13.6,-6.21 20.2,-22.2 13.89,-36.01 -6.31,-13.81 -22.71,-19.29 -36.31,-13.07 -13.6,6.21 -20.2,22.19 -13.89,36 6.3,13.81 22.7,19.29 36.31,13.08z"/>
   <path class="fil0 str0" d="M374.21 291.39c8.24,-12.83 5.09,-30.18 -7.93,-38.55 -13.02,-8.37 -30.11,-4.03 -38.36,8.8 -8.24,12.83 -5.09,30.18 7.93,38.54 13.02,8.37 30.11,4.03 38.36,-8.8z"/>
   <path class="fil0 str1" d="M293.89 229.33c-75.2,0 -136.17,60.96 -136.17,136.16 0,75.2 60.96,136.17 136.17,136.17 75.2,0 136.17,-60.96 136.17,-136.17 0,-75.2 -60.96,-136.16 -136.17,-136.16z"/>
  </g>
 </g>
</svg>
