<svg xmlns="http://www.w3.org/2000/svg" xml:space="preserve" width="0.590551in" height="0.590551in" version="1.1" style="shape-rendering:geometricPrecision; text-rendering:geometricPrecision; image-rendering:optimizeQuality; fill-rule:evenodd; clip-rule:evenodd"
viewBox="0 0 590.55 590.55"
 xmlns:xlink="http://www.w3.org/1999/xlink"
 xmlns:xodm="http://www.corel.com/coreldraw/odm/2003">
 <defs>
  <style type="text/css">
   <![CDATA[
    .str0 {stroke:#9f7d48;stroke-width:7.87;stroke-miterlimit:4}
    .fil0 {fill:none;fill-rule:nonzero}
   ]]>
  </style>
 </defs>
 
 <g id="Layer_x0020_1_0">
  
  <g id="_2055930986720">
   <line class="fil0 str0" x1="390.39" y1="220.69" x2="447.73" y2= "159.88" />
   <line class="fil0 str0" x1="197.01" y1="220.29" x2="140.04" y2= "159.88" />
   <path class="fil0 str0" d="M318.92 283.98c-0.09,-2.32 -0.02,-4.64 0.24,-6.95 0.22,-2.02 0.6,-4.03 1.15,-5.99 0.47,-1.64 1.07,-3.26 1.86,-4.8 0.59,-1.15 1.29,-2.25 2.06,-3.31 1.65,-2.27 3.65,-4.31 5.91,-6.09 1.1,-0.87 2.24,-1.66 3.45,-2.38 1.06,-0.62 2.16,-1.18 3.3,-1.65 0.88,-0.37 1.8,-0.69 2.74,-0.92 0.72,-0.17 1.44,-0.3 2.18,-0.35 0.98,-0.08 1.99,-0.05 2.98,0.05 1.33,0.13 2.66,0.36 3.96,0.69 1.58,0.39 3.12,0.91 4.63,1.52 1.68,0.68 3.3,1.46 4.85,2.36 1.6,0.91 3.13,1.94 4.58,3.05 1.39,1.06 2.69,2.21 3.89,3.45 2.44,2.5 4.45,5.37 6.01,8.4 0.83,1.61 1.54,3.28 2.11,4.97 1.04,3.05 1.67,6.2 1.91,9.38 0.13,1.74 0.13,3.48 0,5.22 -0.09,1.37 -0.28,2.72 -0.54,4.07 -0.31,1.54 -0.74,3.06 -1.25,4.54 -1.16,3.39 -2.78,6.64 -4.71,9.73 -2.15,3.45 -4.7,6.69 -7.49,9.72 -1.5,1.63 -3.09,3.21 -4.74,4.72 -1.48,1.35 -3.04,2.64 -4.62,3.9 -3.54,2.79 -7.25,5.37 -11.02,7.88 -4.86,3.22 -9.81,6.3 -14.74,9.41 -5.67,3.58 -11.31,7.2 -16.83,10.98 -6.33,4.31 -12.5,8.82 -18.52,13.48 -12.06,9.33 -23.54,19.26 -34.62,29.56"/>
   <path class="fil0 str0" d="M286.7 232.11c-10.06,-12.05 -22.25,-18.86 -34.41,-21.96 -26.57,-6.77 -52.9,4.24 -69.87,22.46 -17.33,18.61 -24.89,44.71 -20.61,68.7 3.84,21.52 17.2,41.35 34.74,56.56 14.19,12.3 31.11,21.57 46.9,32.08 17.8,11.86 34.12,25.28 50.04,40.78"/>
   <path class="fil0 str0" d="M268.65 285.49c-0.51,-13.93 2.04,-28.24 9.18,-40.96 10.79,-19.21 32.05,-34.81 55.17,-38.17 25.7,-3.75 53.7,7.65 71.51,26.06 18.17,18.8 25.74,44.9 21.45,68.9 -3.84,21.52 -17.19,41.35 -34.73,56.56 -14.19,12.3 -31.12,21.57 -46.9,32.08 -17.8,11.86 -36.95,27.99 -53.67,43.5"/>
   <path class="fil0 str0" d="M268.86 283.98c0.08,-2.2 0.02,-4.42 -0.2,-6.62 -0.2,-1.95 -0.53,-3.88 -1.04,-5.78 -0.42,-1.6 -0.97,-3.17 -1.69,-4.69 -0.54,-1.16 -1.19,-2.27 -1.92,-3.33 -1.49,-2.18 -3.32,-4.16 -5.37,-5.91 -1.02,-0.89 -2.1,-1.7 -3.24,-2.45 -1.03,-0.68 -2.1,-1.29 -3.22,-1.83 -0.92,-0.45 -1.87,-0.85 -2.87,-1.17 -0.72,-0.24 -1.47,-0.43 -2.24,-0.55 -0.76,-0.12 -1.52,-0.18 -2.3,-0.17 -1.09,0 -2.18,0.11 -3.25,0.28 -1.39,0.22 -2.74,0.54 -4.08,0.95 -1.55,0.47 -3.07,1.05 -4.53,1.72 -3.17,1.44 -6.14,3.29 -8.8,5.46 -1.26,1.04 -2.46,2.15 -3.56,3.32 -1.11,1.2 -2.12,2.47 -3.04,3.8 -1.96,2.81 -3.47,5.88 -4.54,9.06 -0.99,2.9 -1.61,5.91 -1.87,8.94 -0.26,3.22 -0.12,6.49 0.52,9.67 0.61,3 1.65,5.95 2.98,8.78 1.5,3.18 3.37,6.21 5.52,9.07 2.29,3.04 4.89,5.87 7.74,8.49 1.33,1.22 2.71,2.39 4.14,3.5 1.44,1.13 2.94,2.2 4.45,3.25 3.76,2.59 7.63,5.05 11.53,7.47 2.47,1.52 4.96,3.04 7.42,4.57 2.61,1.61 5.21,3.23 7.78,4.91 6.09,3.96 12.03,8.14 17.68,12.59 4.5,3.54 8.83,7.24 13.03,11.08"/>
   <path class="fil0 str0" d="M268.65 285.49c9.98,20.02 41.66,19.25 50.27,-1.5"/>
  </g>
 </g>
</svg>
