<svg xmlns="http://www.w3.org/2000/svg" xml:space="preserve" width="0.590551in" height="0.590551in" version="1.1" style="shape-rendering:geometricPrecision; text-rendering:geometricPrecision; image-rendering:optimizeQuality; fill-rule:evenodd; clip-rule:evenodd"
viewBox="0 -230 590.55 590.55"
 xmlns:xlink="http://www.w3.org/1999/xlink"
 xmlns:xodm="http://www.corel.com/coreldraw/odm/2003">

 <defs>
  <style type="text/css">
   <![CDATA[
    .str0 {stroke:#9f7d48;stroke-width:7.87;stroke-miterlimit:2.61313}
    .fil0 {fill:none}
   ]]>
  </style>
 </defs>

 <g id="Layer_x0020_1_0">
  
  <g id="_2826456119648">
   <path class="fil0 str0" d="M535.37 66.92c0,-20.05 -8.3,-28.37 -28.37,-28.37 -20.06,0 -28.38,8.31 -28.38,28.37 0,20.07 8.32,28.38 28.38,28.38 20.07,0 28.37,-8.31 28.37,-28.38z"/>
   <path class="fil0 str0" d="M464.31 66.92c0,-20.05 -8.3,-28.37 -28.37,-28.37 -20.07,0 -28.38,8.31 -28.38,28.37 0,20.07 8.31,28.38 28.38,28.38 20.06,0 28.37,-8.31 28.37,-28.38z"/>
   <path class="fil0 str0" d="M336.52 66.92c0,-20.05 8.32,-28.37 28.38,-28.37 20.07,0 28.37,8.31 28.37,28.37 0,20.07 -8.3,28.38 -28.37,28.38 -20.06,0 -28.38,-8.31 -28.38,-28.38z"/>
   <path class="fil0 str0" d="M265.48 66.92c0,-20.05 8.32,-28.37 28.37,-28.37 20.06,0 28.37,8.31 28.37,28.37 0,20.07 -8.3,28.38 -28.37,28.38 -20.05,0 -28.37,-8.31 -28.37,-28.38z"/>
   <path class="fil0 str0" d="M194.43 66.92c0,-20.05 8.31,-28.37 28.38,-28.37 20.06,0 28.37,8.31 28.37,28.37 0,20.07 -8.3,28.38 -28.37,28.38 -20.07,0 -28.38,-8.31 -28.38,-28.38z"/>
   <path class="fil0 str0" d="M180.13 66.92c0,-20.05 -8.3,-28.37 -28.37,-28.37 -20.06,0 -28.38,8.31 -28.38,28.37 0,20.07 8.32,28.38 28.38,28.38 20.07,0 28.37,-8.31 28.37,-28.38z"/>
   <path class="fil0 str0" d="M109.08 66.92c0,-20.05 -8.3,-28.37 -28.37,-28.37 -20.06,0 -28.38,8.31 -28.38,28.37 0,20.07 8.31,28.38 28.38,28.38 20.07,0 28.37,-8.31 28.37,-28.38z"/>
   <path class="fil0 str0" d="M562.93 12.8c-111.19,0 -222.37,0 -333.54,0 -55.59,0 -111.19,0 -166.78,0 -51.39,0 -55.08,-2.68 -54.75,20.52 0,9.22 0,18.43 0,27.65 0,9.09 0,18.17 0,27.25 0,24.91 -3.43,34.19 17.17,34.19 111.19,0 222.37,0 333.54,0 55.61,0 111.19,0 166.78,0 46.91,0 54.75,3.82 54.75,-20.39 0,-9.02 0,-18.05 0,-27.06 0,-9.14 0,-18.29 0,-27.44 0,-22.11 1.44,-34.72 -17.17,-34.72z"/>
  </g>
 </g>
</svg>
