<svg xmlns="http://www.w3.org/2000/svg" xml:space="preserve" width="0.590551in" height="0.590551in" version="1.1" style="shape-rendering:geometricPrecision; text-rendering:geometricPrecision; image-rendering:optimizeQuality; fill-rule:evenodd; clip-rule:evenodd"
viewBox="0 0 590.55 590.55"
 xmlns:xlink="http://www.w3.org/1999/xlink"
 xmlns:xodm="http://www.corel.com/coreldraw/odm/2003">
 <defs>
  <style type="text/css">
   <![CDATA[
    .str0 {stroke:#9f7d48;stroke-width:7.87;stroke-miterlimit:4}
    .str1 {stroke:#9f7d48;stroke-width:3.94;stroke-miterlimit:4}
    .fil0 {fill:none;fill-rule:nonzero}
   ]]>
  </style>
 </defs>
 
 <g id="Layer_x0020_1_0">
  
  <g id="_2685422770896">
   <path class="fil0 str0" d="M293.89 483.99c22.4,-18.61 42.69,-40.01 59.95,-63.56 19.99,-27.25 35.92,-57.38 47.22,-89.44 10.83,-30.68 17.43,-63.14 15.56,-95.55 -1.33,-22.97 -6.91,-45.91 -18.33,-66.11 -12.37,-21.87 -31.57,-40.53 -54.44,-50.33 -15.65,-6.71 -33.01,-9.28 -49.95,-9.66"/>
   <path class="fil0 str0" d="M293.89 483.99c-22.39,-18.61 -42.69,-40.01 -59.95,-63.56 -19.98,-27.25 -35.91,-57.38 -47.22,-89.44 -10.83,-30.68 -17.43,-63.14 -15.56,-95.55 1.33,-22.97 6.92,-45.91 18.33,-66.11 12.37,-21.87 31.57,-40.53 54.44,-50.33 15.65,-6.71 33,-9.28 49.94,-9.66"/>
   <polyline class="fil0 str1" points="293.89,483.99 316.22,404.62 293.89,380.12 336.59,340.85 316.22,404.62 340.18,437.87 "/>
   <polyline class="fil0 str1" points="316.22,404.62 379.52,379.73 380.28,296.86 336.59,340.85 364.35,245.79 380.28,296.86 406.91,312.78 "/>
   <polyline class="fil0 str1" points="380.28,296.86 416.93,246.51 385.9,200.03 364.35,245.79 349.29,195.89 385.9,200.03 410.47,198.61 "/>
   <polyline class="fil0 str1" points="385.9,200.03 389.81,156.29 340.13,158.69 349.29,195.89 293.89,179.43 340.13,158.69 349.03,121.41 "/>
   <line class="fil0 str1" x1="340.13" y1="158.69" x2="293.89" y2= "109.34" />
   <line class="fil0 str1" x1="247.65" y1="158.69" x2="293.89" y2= "109.34" />
   <polyline class="fil0 str1" points="201.88,200.03 197.97,156.29 247.65,158.69 238.49,195.89 293.89,179.43 247.65,158.69 238.74,121.41 "/>
   <polyline class="fil0 str1" points="207.49,296.86 170.84,246.51 201.88,200.03 223.43,245.79 238.49,195.89 201.88,200.03 177.31,198.61 "/>
   <polyline class="fil0 str1" points="271.56,404.62 208.26,379.73 207.49,296.86 251.19,340.85 223.43,245.79 207.49,296.86 180.87,312.78 "/>
   <polyline class="fil0 str1" points="293.89,483.99 271.56,404.62 293.89,380.12 251.19,340.85 271.56,404.62 247.6,437.87 "/>
  </g>
 </g>
</svg>
