<svg xmlns="http://www.w3.org/2000/svg" xml:space="preserve" width="0.590551in" height="0.590551in" version="1.1" style="shape-rendering:geometricPrecision; text-rendering:geometricPrecision; image-rendering:optimizeQuality; fill-rule:evenodd; clip-rule:evenodd"
viewBox="0 0 590.55 590.55"
 xmlns:xlink="http://www.w3.org/1999/xlink"
 xmlns:xodm="http://www.corel.com/coreldraw/odm/2003">
 <defs>
  <style type="text/css">
   <![CDATA[
    .str0 {stroke:#9f7d48;stroke-width:7.87;stroke-miterlimit:4}
    .str2 {stroke:#9E1A24;stroke-width:7.87;stroke-miterlimit:4}
    .str1 {stroke:#9f7d48;stroke-width:3.94;stroke-miterlimit:4}
    .fil0 {fill:none;fill-rule:nonzero}
    .fil1 {fill:#f06e9b;fill-rule:nonzero}
   ]]>
  </style>
 </defs>
 
 <g id="Layer_x0020_1_0">
  
  <g id="_2055961244448">
   <path class="fil0 str0" d="M267.39 183.4c-8.69,-16.41 -17.19,-34.91 -18.76,-54.4 -1.37,-17.08 2.56,-34.92 15.61,-43.93 7.44,-5.15 17.86,-7.41 29.65,-7.18 11.79,-0.24 22.21,2.03 29.66,7.18 13.06,9.02 16.98,26.85 15.61,43.93 -1.57,19.49 -10.07,37.99 -18.76,54.4"/>
   <line class="fil0 str0" x1="248.59" y1="128.44" x2="158.24" y2= "45.39" />
   <line class="fil0 str0" x1="339.2" y1="128.44" x2="429.55" y2= "45.39" />
   <path class="fil0 str1" d="M394.22 257.95c9.85,-15.33 6.09,-36.07 -9.48,-46.07 -15.57,-10 -35.99,-4.81 -45.85,10.52 -9.85,15.33 -6.09,36.07 9.48,46.07 15.56,10 35.99,4.81 45.85,-10.52z"/>
   <path class="fil0 str1" d="M429.81 327.33c16.58,-7.57 24.62,-27.05 16.94,-43.89 -7.69,-16.83 -27.68,-23.51 -44.26,-15.94 -16.58,7.57 -24.62,27.05 -16.94,43.88 7.69,16.83 27.68,23.51 44.26,15.94z"/>
   <path class="fil0 str1" d="M422.26 404.93c18.04,2.59 35.34,-9.44 37.97,-27.76 2.64,-18.31 -10.57,-34.74 -28.61,-37.33 -18.04,-2.59 -35.34,9.45 -37.97,27.76 -2.63,18.31 10.57,34.74 28.61,37.33z"/>
   <path class="fil0 str1" d="M373.94 466.13c13.78,11.94 34.84,11.16 46.95,-2.82 12.12,-13.98 9.89,-34.94 -3.89,-46.88 -13.77,-11.93 -34.83,-11.16 -46.95,2.83 -12.12,13.98 -9.89,34.94 3.89,46.87z"/>
   <path class="fil0 str1" d="M300.2 491.49c5.13,17.49 23.27,28.22 41.03,23.01 17.75,-5.21 27.21,-24.05 22.07,-41.54 -5.14,-17.49 -23.28,-28.22 -41.03,-23.01 -17.76,5.21 -27.21,24.05 -22.07,41.54z"/>
   <path class="fil0 str1" d="M224.47 472.96c-5.14,17.49 4.32,36.32 22.07,41.54 17.76,5.22 35.89,-5.52 41.03,-23.01 5.13,-17.49 -4.32,-36.32 -22.07,-41.54 -17.75,-5.21 -35.89,5.52 -41.02,23.01z"/>
   <path class="fil0 str1" d="M170.77 416.43c-13.78,11.94 -16,32.89 -3.89,46.88 12.11,13.98 33.18,14.76 46.95,2.82 13.78,-11.93 16,-32.89 3.89,-46.87 -12.12,-13.98 -33.18,-14.76 -46.95,-2.83z"/>
   <path class="fil0 str1" d="M156.16 339.83c-18.04,2.59 -31.24,19.02 -28.61,37.33 2.63,18.31 19.93,30.35 37.97,27.76 18.04,-2.59 31.25,-19.02 28.61,-37.33 -2.63,-18.31 -19.93,-30.35 -37.97,-27.76z"/>
   <path class="fil0 str1" d="M185.28 267.5c-16.58,-7.57 -36.57,-0.89 -44.26,15.94 -7.69,16.83 0.36,36.31 16.94,43.89 16.58,7.57 36.57,0.89 44.26,-15.94 7.69,-16.83 -0.36,-36.31 -16.94,-43.88z"/>
   <path class="fil0 str1" d="M248.88 222.4c-9.85,-15.33 -30.28,-20.52 -45.85,-10.52 -15.57,10 -19.33,30.74 -9.48,46.07 9.85,15.33 30.28,20.52 45.85,10.52 15.57,-10 19.33,-30.74 9.48,-46.07z"/>
   <path class="fil0 str1" d="M326.77 218.84c0,-18.23 -14.38,-33.64 -32.88,-33.64 -18.5,0 -32.88,15.41 -32.88,33.64 0,18.22 14.38,33.63 32.88,33.63 18.5,0 32.88,-15.41 32.88,-33.63z"/>
   <path class="fil1 str2" d="M293.89 257.47c-52.9,0 -95.78,42.89 -95.78,95.79 0,52.9 42.89,95.78 95.78,95.78 52.9,0 95.78,-42.88 95.78,-95.78 0,-52.9 -42.88,-95.79 -95.78,-95.79z"/>
   <path class="fil0 str0" d="M293.89 180.2c-95.57,0 -173.05,77.48 -173.05,173.05 0,95.57 77.48,173.05 173.05,173.05 95.57,0 173.05,-77.48 173.05,-173.05 0,-95.57 -77.48,-173.05 -173.05,-173.05z"/>
  </g>
 </g>
</svg>
