<svg xmlns="http://www.w3.org/2000/svg" xml:space="preserve" width="0.590551in" height="0.590551in" version="1.1" style="shape-rendering:geometricPrecision; text-rendering:geometricPrecision; image-rendering:optimizeQuality; fill-rule:evenodd; clip-rule:evenodd"
viewBox="0 0 590.55 590.55"
 xmlns:xlink="http://www.w3.org/1999/xlink"
 xmlns:xodm="http://www.corel.com/coreldraw/odm/2003">
 <defs>
  <style type="text/css">
   <![CDATA[
    .str1 {stroke:#9f7d48;stroke-width:7.87;stroke-miterlimit:4}
    .str0 {stroke:#9f7d48;stroke-width:3.94;stroke-miterlimit:4}
    .fil0 {fill:none;fill-rule:nonzero}
   ]]>
  </style>
 </defs>
 
 <g id="Layer_x0020_1_0">
  
  <g id="_2685377820048">
   <line class="fil0 str0" x1="293.89" y1="124.35" x2="243.5" y2= "175.69" />
   <line class="fil0 str0" x1="293.89" y1="207.76" x2="243.5" y2= "175.69" />
   <line class="fil0 str0" x1="243.5" y1="175.69" x2="227.63" y2= "137.59" />
   <line class="fil0 str0" x1="243.5" y1="175.69" x2="172.04" y2= "174.82" />
   <line class="fil0 str0" x1="243.5" y1="175.69" x2="228.43" y2= "231.21" />
   <line class="fil0 str0" x1="228.43" y1="231.21" x2="293.89" y2= "207.76" />
   <line class="fil0 str0" x1="228.43" y1="231.21" x2="204.98" y2= "296.67" />
   <line class="fil0 str0" x1="172.91" y1="246.28" x2="228.43" y2= "231.21" />
   <line class="fil0 str0" x1="172.91" y1="246.28" x2="172.04" y2= "174.82" />
   <line class="fil0 str0" x1="172.91" y1="246.28" x2="134.81" y2= "230.41" />
   <line class="fil0 str0" x1="204.98" y1="296.67" x2="172.91" y2= "246.28" />
   <line class="fil0 str0" x1="121.57" y1="296.67" x2="172.91" y2= "246.28" />
   <line class="fil0 str0" x1="121.57" y1="296.67" x2="172.91" y2= "347.05" />
   <line class="fil0 str0" x1="204.98" y1="296.67" x2="172.91" y2= "347.05" />
   <line class="fil0 str0" x1="172.91" y1="347.05" x2="134.81" y2= "362.91" />
   <line class="fil0 str0" x1="172.91" y1="347.05" x2="172.04" y2= "418.51" />
   <line class="fil0 str0" x1="172.91" y1="347.05" x2="228.43" y2= "362.11" />
   <line class="fil0 str0" x1="228.43" y1="362.11" x2="204.98" y2= "296.67" />
   <line class="fil0 str0" x1="228.43" y1="362.11" x2="293.89" y2= "385.57" />
   <line class="fil0 str0" x1="243.5" y1="417.65" x2="228.43" y2= "362.11" />
   <line class="fil0 str0" x1="243.5" y1="417.65" x2="172.04" y2= "418.51" />
   <line class="fil0 str0" x1="243.5" y1="417.65" x2="227.63" y2= "455.74" />
   <line class="fil0 str0" x1="293.89" y1="385.57" x2="243.5" y2= "417.65" />
   <line class="fil0 str0" x1="293.89" y1="468.98" x2="243.5" y2= "417.65" />
   <line class="fil0 str0" x1="293.89" y1="468.98" x2="344.28" y2= "417.65" />
   <line class="fil0 str0" x1="293.89" y1="385.57" x2="344.28" y2= "417.65" />
   <line class="fil0 str0" x1="344.28" y1="417.65" x2="360.13" y2= "455.74" />
   <line class="fil0 str0" x1="344.28" y1="417.65" x2="415.73" y2= "418.51" />
   <line class="fil0 str0" x1="344.28" y1="417.65" x2="359.34" y2= "362.11" />
   <line class="fil0 str0" x1="359.34" y1="362.11" x2="293.89" y2= "385.57" />
   <line class="fil0 str0" x1="359.34" y1="362.11" x2="382.79" y2= "296.67" />
   <line class="fil0 str0" x1="414.87" y1="347.05" x2="359.34" y2= "362.11" />
   <line class="fil0 str0" x1="414.87" y1="347.05" x2="415.73" y2= "418.51" />
   <line class="fil0 str0" x1="414.87" y1="347.05" x2="452.95" y2= "362.91" />
   <line class="fil0 str0" x1="382.79" y1="296.67" x2="414.87" y2= "347.05" />
   <line class="fil0 str0" x1="466.2" y1="296.67" x2="414.87" y2= "347.05" />
   <line class="fil0 str0" x1="466.2" y1="296.67" x2="414.87" y2= "246.28" />
   <line class="fil0 str0" x1="382.79" y1="296.67" x2="414.87" y2= "246.28" />
   <line class="fil0 str0" x1="414.87" y1="246.28" x2="452.95" y2= "230.41" />
   <line class="fil0 str0" x1="414.87" y1="246.28" x2="415.73" y2= "174.82" />
   <line class="fil0 str0" x1="414.87" y1="246.28" x2="359.34" y2= "231.21" />
   <line class="fil0 str0" x1="359.34" y1="231.21" x2="382.79" y2= "296.67" />
   <line class="fil0 str0" x1="359.34" y1="231.21" x2="293.89" y2= "207.76" />
   <line class="fil0 str0" x1="344.28" y1="175.69" x2="359.34" y2= "231.21" />
   <line class="fil0 str0" x1="344.28" y1="175.69" x2="415.73" y2= "174.82" />
   <line class="fil0 str0" x1="344.28" y1="175.69" x2="360.13" y2= "137.59" />
   <line class="fil0 str0" x1="293.89" y1="207.76" x2="344.28" y2= "175.69" />
   <line class="fil0 str0" x1="293.89" y1="124.35" x2="344.28" y2= "175.69" />
   <path class="fil0 str1" d="M293.89 124.35c-95.17,0 -172.32,77.15 -172.32,172.31 0,95.17 77.15,172.31 172.32,172.31 95.17,0 172.31,-77.15 172.31,-172.31 0,-95.17 -77.15,-172.31 -172.31,-172.31z"/>
  </g>
 </g>
</svg>
