<svg xmlns="http://www.w3.org/2000/svg" xml:space="preserve" width="0.590551in" height="0.590551in" version="1.1" style="shape-rendering:geometricPrecision; text-rendering:geometricPrecision; image-rendering:optimizeQuality; fill-rule:evenodd; clip-rule:evenodd"
viewBox="0 0 590.55 590.55"
 xmlns:xlink="http://www.w3.org/1999/xlink"
 xmlns:xodm="http://www.corel.com/coreldraw/odm/2003">
 <defs>
  <style type="text/css">
   <![CDATA[
    .str0 {stroke:#9f7d48;stroke-width:9.84;stroke-miterlimit:4}
    .str2 {stroke:#9E1A24;stroke-width:9.84;stroke-miterlimit:4}
    .str1 {stroke:#9f7d48;stroke-width:7.87;stroke-miterlimit:4}
    .fil0 {fill:none;fill-rule:nonzero}
    .fil1 {fill:#272e71;fill-rule:nonzero}
   ]]>
  </style>
 </defs>
 
 <g id="Layer_x0020_1_0">
  
  <g id="_2055958821920">
   <line class="fil0 str0" x1="247.88" y1="305.94" x2="17.19" y2= "370.16" />
   <path class="fil0 str1" d="M392.02 147.39c-24.48,-0.02 -44.35,19.81 -44.37,44.3 -0.02,24.49 19.81,44.35 44.3,44.37 24.49,0.03 44.35,-19.81 44.37,-44.3 0.03,-24.49 -19.81,-44.35 -44.3,-44.37z"/>
   <path class="fil0 str1" d="M474.74 172.45c-20.61,-0.38 -37.63,16.03 -38.01,36.64 -0.38,20.62 16.03,37.63 36.64,38.02 20.62,0.38 37.63,-16.03 38.02,-36.65 0.38,-20.61 -16.03,-37.63 -36.65,-38.01z"/>
   <path class="fil0 str1" d="M466.48 357.83c-20.71,0.4 -37.18,17.52 -36.79,38.23 0.4,20.72 17.52,37.19 38.22,36.79 20.72,-0.4 37.19,-17.51 36.79,-38.22 -0.39,-20.71 -17.51,-37.19 -38.23,-36.79z"/>
   <path class="fil0 str1" d="M513.2 305.29c-18.71,0.61 -33.37,16.27 -32.76,34.97 0.61,18.7 16.27,33.37 34.97,32.76 18.7,-0.61 33.37,-16.27 32.76,-34.97 -0.61,-18.7 -16.27,-33.37 -34.96,-32.76z"/>
   <path class="fil0 str1" d="M517.68 234.44c-18.79,-0.47 -34.41,14.38 -34.88,33.17 -0.47,18.8 14.39,34.42 33.18,34.89 18.8,0.47 34.41,-14.38 34.89,-33.17 0.47,-18.8 -14.38,-34.41 -33.18,-34.89z"/>
   <path class="fil0 str1" d="M383.87 363.61c-24.41,0 -44.2,19.79 -44.2,44.2 0,24.41 19.79,44.2 44.2,44.2 24.41,0 44.2,-19.8 44.2,-44.2 0,-24.41 -19.79,-44.2 -44.2,-44.2z"/>
   <path class="fil0 str1" d="M310.31 297.22c-27.78,0 -50.3,22.53 -50.3,50.31 0,27.78 22.52,50.31 50.3,50.31 27.78,0 50.31,-22.53 50.31,-50.31 0,-27.78 -22.53,-50.31 -50.31,-50.31z"/>
   <path class="fil0 str1" d="M313.57 195.75c-27.87,0 -50.45,22.59 -50.45,50.46 0,27.87 22.59,50.46 50.45,50.46 27.87,0 50.46,-22.59 50.46,-50.46 0,-27.87 -22.59,-50.46 -50.46,-50.46z"/>
   <path class="fil0 str0" d="M555 300.24c0,-84.83 -68.78,-153.61 -153.62,-153.61 -84.83,0 -153.61,68.78 -153.61,153.61 0,84.84 68.77,153.62 153.61,153.62 84.84,0 153.62,-68.78 153.62,-153.62z"/>
   <path class="fil1 str2" d="M488.13 300.24c0,-37.87 -30.7,-68.57 -68.58,-68.57 -37.87,0 -68.57,30.7 -68.57,68.57 0,37.87 30.7,68.58 68.57,68.58 37.87,0 68.58,-30.71 68.58,-68.58z"/>
  </g>
 </g>
</svg>
