<svg xmlns="http://www.w3.org/2000/svg" xml:space="preserve" width="0.590551in" height="0.590551in" version="1.1" style="shape-rendering:geometricPrecision; text-rendering:geometricPrecision; image-rendering:optimizeQuality; fill-rule:evenodd; clip-rule:evenodd"
viewBox="0 0 590.55 590.55"
 xmlns:xlink="http://www.w3.org/1999/xlink"
 xmlns:xodm="http://www.corel.com/coreldraw/odm/2003">
 <defs>
  <style type="text/css">
   <![CDATA[
    .str0 {stroke:#9f7d48;stroke-width:7.87;stroke-miterlimit:2.61313}
    .str1 {stroke:#9f7d48;stroke-width:3.94;stroke-miterlimit:2.61313}
    .fil0 {fill:none}
   ]]>
  </style>
 </defs>
 
 <g id="Layer_x0020_1_0">
  
  <g id="_1737192306720">
   <path class="fil0 str0" d="M293.89 261.04c51.62,0 103.25,0 154.87,0 25.82,0 51.63,0 77.44,0 28.57,0 57.27,-3.43 57.27,35.24 0,38.66 -28.7,35.24 -57.26,35.24 -25.8,0 -51.6,0 -77.41,0 -51.63,0 -103.28,0 -154.92,0 -51.62,0 -103.24,0 -154.87,0 -25.82,0 -51.62,0 -77.44,0 -28.57,0 -57.27,3.43 -57.27,-35.24 0,-38.67 28.7,-35.24 57.27,-35.24 25.79,0 51.59,0 77.39,0 51.65,0 103.28,0 154.92,0l0.01 0z"/>
   <g>
    <path class="fil0 str0" d="M505.64 261.04c24.92,0 35.24,10.31 35.24,35.24 0,24.92 -10.33,35.24 -35.24,35.24 -24.92,0 -35.25,-10.33 -35.25,-35.24 0,-24.93 10.33,-35.24 35.25,-35.24z"/>
    <g>
     <polyline class="fil0 str1" points="390.16,272.55 376.03,272.72 365.24,262.24 "/>
     <line class="fil0 str1" x1="376.03" y1="272.72" x2="379.32" y2= "265.16" />
     <line class="fil0 str1" x1="376.03" y1="272.72" x2="379" y2= "283.73" />
     <line class="fil0 str1" x1="376.03" y1="272.72" x2="365.24" y2= "278.26" />
     <line class="fil0 str1" x1="379" y1="283.73" x2="365.24" y2= "278.26" />
     <polyline class="fil0 str1" points="390.16,322.4 390.01,308.27 400.49,297.48 "/>
     <line class="fil0 str1" x1="390.01" y1="308.27" x2="397.55" y2= "311.56" />
     <line class="fil0 str1" x1="390.01" y1="308.27" x2="379" y2= "311.24" />
     <line class="fil0 str1" x1="390.01" y1="308.27" x2="384.45" y2= "297.48" />
     <line class="fil0 str1" x1="379" y1="311.24" x2="384.45" y2= "297.48" />
     <line class="fil0 str1" x1="379" y1="283.73" x2="384.45" y2= "297.48" />
     <line class="fil0 str1" x1="390.01" y1="286.7" x2="384.45" y2= "297.48" />
     <line class="fil0 str1" x1="390.01" y1="286.7" x2="379" y2= "283.73" />
     <line class="fil0 str1" x1="390.01" y1="286.7" x2="397.55" y2= "283.41" />
     <polyline class="fil0 str1" points="390.16,272.55 390.01,286.7 400.49,297.48 "/>
     <line class="fil0 str1" x1="379" y1="311.24" x2="365.24" y2= "316.7" />
     <line class="fil0 str1" x1="376.03" y1="322.25" x2="365.24" y2= "316.7" />
     <line class="fil0 str1" x1="376.03" y1="322.25" x2="379" y2= "311.24" />
     <line class="fil0 str1" x1="376.03" y1="322.25" x2="379.32" y2= "329.81" />
     <polyline class="fil0 str1" points="390.16,322.4 376.03,322.25 365.24,332.73 "/>
     <polyline class="fil0 str1" points="340.32,322.4 354.46,322.25 365.24,332.73 "/>
     <line class="fil0 str1" x1="354.46" y1="322.25" x2="351.17" y2= "329.81" />
     <line class="fil0 str1" x1="354.46" y1="322.25" x2="351.47" y2= "311.24" />
     <line class="fil0 str1" x1="354.46" y1="322.25" x2="365.24" y2= "316.7" />
     <line class="fil0 str1" x1="351.47" y1="311.24" x2="365.24" y2= "316.7" />
     <polyline class="fil0 str1" points="340.32,272.55 340.48,286.7 330,297.48 "/>
     <line class="fil0 str1" x1="340.48" y1="286.7" x2="332.92" y2= "283.41" />
     <line class="fil0 str1" x1="340.48" y1="286.7" x2="351.47" y2= "283.73" />
     <line class="fil0 str1" x1="340.48" y1="286.7" x2="346.02" y2= "297.48" />
     <line class="fil0 str1" x1="351.47" y1="283.73" x2="346.02" y2= "297.48" />
     <line class="fil0 str1" x1="351.47" y1="311.24" x2="346.02" y2= "297.48" />
     <line class="fil0 str1" x1="340.48" y1="308.27" x2="346.02" y2= "297.48" />
     <line class="fil0 str1" x1="340.48" y1="308.27" x2="351.47" y2= "311.24" />
     <line class="fil0 str1" x1="340.48" y1="308.27" x2="332.92" y2= "311.56" />
     <polyline class="fil0 str1" points="340.32,322.4 340.48,308.27 330,297.48 "/>
     <line class="fil0 str1" x1="351.47" y1="283.73" x2="365.24" y2= "278.26" />
     <line class="fil0 str1" x1="354.46" y1="272.72" x2="365.24" y2= "278.26" />
     <line class="fil0 str1" x1="354.46" y1="272.72" x2="351.47" y2= "283.73" />
     <line class="fil0 str1" x1="354.46" y1="272.72" x2="351.17" y2= "265.16" />
     <polyline class="fil0 str1" points="340.32,272.55 354.46,272.72 365.24,262.24 "/>
    </g>
    <path class="fil0 str0" d="M364.35 261.04c24.92,0 35.25,10.31 35.25,35.24 0,24.92 -10.33,35.24 -35.25,35.24 -24.92,0 -35.24,-10.33 -35.24,-35.24 0,-24.93 10.33,-35.24 35.24,-35.24z"/>
    <path class="fil0 str0" d="M434.99 261.04c-24.92,0 -35.24,10.31 -35.24,35.24 0,24.92 10.33,35.24 35.24,35.24 24.92,0 35.24,-10.33 35.24,-35.24 0,-24.93 -10.33,-35.24 -35.24,-35.24z"/>
    <g>
     <polyline class="fil0 str1" points="531.15,272.22 517.01,272.39 506.23,261.91 "/>
     <line class="fil0 str1" x1="517.01" y1="272.39" x2="520.3" y2= "264.83" />
     <line class="fil0 str1" x1="517.01" y1="272.39" x2="519.98" y2= "283.4" />
     <line class="fil0 str1" x1="517.01" y1="272.39" x2="506.23" y2= "277.94" />
     <line class="fil0 str1" x1="519.98" y1="283.4" x2="506.23" y2= "277.94" />
     <polyline class="fil0 str1" points="531.15,322.07 530.99,307.94 541.47,297.16 "/>
     <line class="fil0 str1" x1="530.99" y1="307.94" x2="538.55" y2= "311.23" />
     <line class="fil0 str1" x1="530.99" y1="307.94" x2="519.98" y2= "310.91" />
     <line class="fil0 str1" x1="530.99" y1="307.94" x2="525.45" y2= "297.16" />
     <line class="fil0 str1" x1="519.98" y1="310.91" x2="525.45" y2= "297.16" />
     <line class="fil0 str1" x1="519.98" y1="283.4" x2="525.45" y2= "297.16" />
     <line class="fil0 str1" x1="530.99" y1="286.37" x2="525.45" y2= "297.16" />
     <line class="fil0 str1" x1="530.99" y1="286.37" x2="519.98" y2= "283.4" />
     <line class="fil0 str1" x1="530.99" y1="286.37" x2="538.55" y2= "283.07" />
     <polyline class="fil0 str1" points="531.15,272.22 530.99,286.37 541.47,297.16 "/>
     <line class="fil0 str1" x1="519.98" y1="310.91" x2="506.23" y2= "316.38" />
     <line class="fil0 str1" x1="517.01" y1="321.92" x2="506.23" y2= "316.38" />
     <line class="fil0 str1" x1="517.01" y1="321.92" x2="519.98" y2= "310.91" />
     <line class="fil0 str1" x1="517.01" y1="321.92" x2="520.3" y2= "329.48" />
     <polyline class="fil0 str1" points="531.15,322.07 517.01,321.92 506.23,332.4 "/>
     <polyline class="fil0 str1" points="481.31,322.07 495.45,321.92 506.23,332.4 "/>
     <line class="fil0 str1" x1="495.45" y1="321.92" x2="492.16" y2= "329.48" />
     <line class="fil0 str1" x1="495.45" y1="321.92" x2="492.46" y2= "310.91" />
     <line class="fil0 str1" x1="495.45" y1="321.92" x2="506.23" y2= "316.38" />
     <line class="fil0 str1" x1="492.46" y1="310.91" x2="506.23" y2= "316.38" />
     <line class="fil0 str1" x1="481.46" y1="286.37" x2="492.46" y2= "283.4" />
     <line class="fil0 str1" x1="481.46" y1="286.37" x2="487.01" y2= "297.16" />
     <line class="fil0 str1" x1="492.46" y1="283.4" x2="487.01" y2= "297.16" />
     <line class="fil0 str1" x1="492.46" y1="310.91" x2="487.01" y2= "297.16" />
     <line class="fil0 str1" x1="481.46" y1="307.94" x2="487.01" y2= "297.16" />
     <line class="fil0 str1" x1="481.46" y1="307.94" x2="492.46" y2= "310.91" />
     <line class="fil0 str1" x1="492.46" y1="283.4" x2="506.23" y2= "277.94" />
     <line class="fil0 str1" x1="495.45" y1="272.39" x2="506.23" y2= "277.94" />
     <line class="fil0 str1" x1="495.45" y1="272.39" x2="492.46" y2= "283.4" />
     <line class="fil0 str1" x1="495.45" y1="272.39" x2="492.16" y2= "264.83" />
     <polyline class="fil0 str1" points="481.31,272.22 495.45,272.39 506.23,261.91 "/>
     <polyline class="fil0 str1" points="481.31,272.22 481.46,286.37 470.98,297.16 "/>
     <line class="fil0 str1" x1="481.46" y1="286.37" x2="473.91" y2= "283.07" />
     <line class="fil0 str1" x1="481.46" y1="307.94" x2="473.91" y2= "311.23" />
     <polyline class="fil0 str1" points="481.31,322.07 481.46,307.94 470.98,297.16 "/>
    </g>
    <g>
     <polyline class="fil0 str1" points="461.63,270.27 447.49,270.44 436.71,259.96 "/>
     <line class="fil0 str1" x1="447.49" y1="270.44" x2="450.79" y2= "262.89" />
     <line class="fil0 str1" x1="447.49" y1="270.44" x2="450.46" y2= "281.46" />
     <line class="fil0 str1" x1="447.49" y1="270.44" x2="436.71" y2= "275.99" />
     <line class="fil0 str1" x1="450.46" y1="281.46" x2="436.71" y2= "275.99" />
     <polyline class="fil0 str1" points="461.63,320.13 461.48,305.99 471.95,295.2 "/>
     <line class="fil0 str1" x1="461.48" y1="305.99" x2="469.02" y2= "309.28" />
     <line class="fil0 str1" x1="461.48" y1="305.99" x2="450.46" y2= "308.96" />
     <line class="fil0 str1" x1="461.48" y1="305.99" x2="455.91" y2= "295.2" />
     <line class="fil0 str1" x1="450.46" y1="308.96" x2="455.91" y2= "295.2" />
     <line class="fil0 str1" x1="450.46" y1="281.46" x2="455.91" y2= "295.2" />
     <line class="fil0 str1" x1="461.48" y1="284.42" x2="455.91" y2= "295.2" />
     <line class="fil0 str1" x1="461.48" y1="284.42" x2="450.46" y2= "281.46" />
     <line class="fil0 str1" x1="461.48" y1="284.42" x2="469.02" y2= "281.13" />
     <polyline class="fil0 str1" points="461.63,270.27 461.48,284.42 471.95,295.2 "/>
     <line class="fil0 str1" x1="450.46" y1="308.96" x2="436.71" y2= "314.43" />
     <line class="fil0 str1" x1="447.49" y1="319.98" x2="436.71" y2= "314.43" />
     <line class="fil0 str1" x1="447.49" y1="319.98" x2="450.46" y2= "308.96" />
     <line class="fil0 str1" x1="447.49" y1="319.98" x2="450.79" y2= "327.53" />
     <polyline class="fil0 str1" points="461.63,320.13 447.49,319.98 436.71,330.44 "/>
     <polyline class="fil0 str1" points="411.79,320.13 425.93,319.98 436.71,330.44 "/>
     <line class="fil0 str1" x1="425.93" y1="319.98" x2="422.64" y2= "327.53" />
     <line class="fil0 str1" x1="425.93" y1="319.98" x2="422.94" y2= "308.96" />
     <line class="fil0 str1" x1="425.93" y1="319.98" x2="436.71" y2= "314.43" />
     <line class="fil0 str1" x1="422.94" y1="308.96" x2="436.71" y2= "314.43" />
     <polyline class="fil0 str1" points="411.79,270.27 411.94,284.42 401.47,295.2 "/>
     <line class="fil0 str1" x1="411.94" y1="284.42" x2="404.39" y2= "281.13" />
     <line class="fil0 str1" x1="411.94" y1="284.42" x2="422.94" y2= "281.46" />
     <line class="fil0 str1" x1="411.94" y1="284.42" x2="417.49" y2= "295.2" />
     <line class="fil0 str1" x1="422.94" y1="281.46" x2="417.49" y2= "295.2" />
     <line class="fil0 str1" x1="422.94" y1="308.96" x2="417.49" y2= "295.2" />
     <line class="fil0 str1" x1="411.94" y1="305.99" x2="417.49" y2= "295.2" />
     <line class="fil0 str1" x1="411.94" y1="305.99" x2="422.94" y2= "308.96" />
     <line class="fil0 str1" x1="411.94" y1="305.99" x2="404.39" y2= "309.28" />
     <polyline class="fil0 str1" points="411.79,320.13 411.94,305.99 401.47,295.2 "/>
     <line class="fil0 str1" x1="422.94" y1="281.46" x2="436.71" y2= "275.99" />
     <line class="fil0 str1" x1="425.93" y1="270.44" x2="436.71" y2= "275.99" />
     <line class="fil0 str1" x1="425.93" y1="270.44" x2="422.94" y2= "281.46" />
     <line class="fil0 str1" x1="425.93" y1="270.44" x2="422.64" y2= "262.89" />
     <polyline class="fil0 str1" points="411.79,270.27 425.93,270.44 436.71,259.96 "/>
    </g>
    <g>
     <polyline class="fil0 str1" points="248.39,271.9 234.25,272.07 223.47,261.59 "/>
     <line class="fil0 str1" x1="234.25" y1="272.07" x2="237.53" y2= "264.52" />
     <line class="fil0 str1" x1="234.25" y1="272.07" x2="237.22" y2= "283.09" />
     <line class="fil0 str1" x1="234.25" y1="272.07" x2="223.47" y2= "277.62" />
     <line class="fil0 str1" x1="237.22" y1="283.09" x2="223.47" y2= "277.62" />
     <polyline class="fil0 str1" points="248.39,321.76 248.22,307.62 258.7,296.83 "/>
     <line class="fil0 str1" x1="248.22" y1="307.62" x2="255.77" y2= "310.91" />
     <line class="fil0 str1" x1="248.22" y1="307.62" x2="237.22" y2= "310.59" />
     <line class="fil0 str1" x1="248.22" y1="307.62" x2="242.67" y2= "296.83" />
     <line class="fil0 str1" x1="237.22" y1="310.59" x2="242.67" y2= "296.83" />
     <line class="fil0 str1" x1="237.22" y1="283.09" x2="242.67" y2= "296.83" />
     <line class="fil0 str1" x1="248.22" y1="286.05" x2="242.67" y2= "296.83" />
     <line class="fil0 str1" x1="248.22" y1="286.05" x2="237.22" y2= "283.09" />
     <line class="fil0 str1" x1="248.22" y1="286.05" x2="255.77" y2= "282.76" />
     <polyline class="fil0 str1" points="248.39,271.9 248.22,286.05 258.7,296.83 "/>
     <line class="fil0 str1" x1="237.22" y1="310.59" x2="223.47" y2= "316.06" />
     <line class="fil0 str1" x1="234.25" y1="321.61" x2="223.47" y2= "316.06" />
     <line class="fil0 str1" x1="234.25" y1="321.61" x2="237.22" y2= "310.59" />
     <line class="fil0 str1" x1="234.25" y1="321.61" x2="237.53" y2= "329.16" />
     <polyline class="fil0 str1" points="248.39,321.76 234.25,321.61 223.47,332.07 "/>
     <polyline class="fil0 str1" points="198.53,321.76 212.69,321.61 223.47,332.07 "/>
     <line class="fil0 str1" x1="212.69" y1="321.61" x2="209.4" y2= "329.16" />
     <line class="fil0 str1" x1="212.69" y1="321.61" x2="209.7" y2= "310.59" />
     <line class="fil0 str1" x1="212.69" y1="321.61" x2="223.47" y2= "316.06" />
     <line class="fil0 str1" x1="209.7" y1="310.59" x2="223.47" y2= "316.06" />
     <polyline class="fil0 str1" points="198.53,271.9 198.7,286.05 188.21,296.83 "/>
     <line class="fil0 str1" x1="198.7" y1="286.05" x2="191.15" y2= "282.76" />
     <line class="fil0 str1" x1="198.7" y1="286.05" x2="209.7" y2= "283.09" />
     <line class="fil0 str1" x1="198.7" y1="286.05" x2="204.25" y2= "296.83" />
     <line class="fil0 str1" x1="209.7" y1="283.09" x2="204.25" y2= "296.83" />
     <line class="fil0 str1" x1="209.7" y1="310.59" x2="204.25" y2= "296.83" />
     <line class="fil0 str1" x1="198.7" y1="307.62" x2="204.25" y2= "296.83" />
     <line class="fil0 str1" x1="198.7" y1="307.62" x2="209.7" y2= "310.59" />
     <line class="fil0 str1" x1="198.7" y1="307.62" x2="191.15" y2= "310.91" />
     <polyline class="fil0 str1" points="198.53,321.76 198.7,307.62 188.21,296.83 "/>
     <line class="fil0 str1" x1="209.7" y1="283.09" x2="223.47" y2= "277.62" />
     <line class="fil0 str1" x1="212.69" y1="272.07" x2="223.47" y2= "277.62" />
     <line class="fil0 str1" x1="212.69" y1="272.07" x2="209.7" y2= "283.09" />
     <line class="fil0 str1" x1="212.69" y1="272.07" x2="209.4" y2= "264.52" />
     <polyline class="fil0 str1" points="198.53,271.9 212.69,272.07 223.47,261.59 "/>
    </g>
    <path class="fil0 str0" d="M223.92 261.04c24.92,0 35.23,10.31 35.23,35.24 0,24.92 -10.31,35.24 -35.23,35.24 -24.94,0 -35.26,-10.33 -35.26,-35.24 0,-24.93 10.33,-35.24 35.26,-35.24z"/>
    <path class="fil0 str0" d="M293.89 261.04c-24.92,0 -35.25,10.31 -35.25,35.24 0,24.92 10.33,35.24 35.25,35.24 24.92,0 35.24,-10.33 35.24,-35.24 0,-24.93 -10.33,-35.24 -35.24,-35.24z"/>
    <g>
     <polyline class="fil0 str1" points="318.87,273.2 304.74,273.37 293.95,262.89 "/>
     <line class="fil0 str1" x1="304.74" y1="273.37" x2="308.03" y2= "265.81" />
     <line class="fil0 str1" x1="304.74" y1="273.37" x2="307.71" y2= "284.39" />
     <line class="fil0 str1" x1="304.74" y1="273.37" x2="293.95" y2= "278.92" />
     <line class="fil0 str1" x1="307.71" y1="284.39" x2="293.95" y2= "278.92" />
     <polyline class="fil0 str1" points="318.87,323.05 318.7,308.92 329.2,298.14 "/>
     <line class="fil0 str1" x1="318.7" y1="308.92" x2="326.26" y2= "312.2" />
     <line class="fil0 str1" x1="318.7" y1="308.92" x2="307.71" y2= "311.89" />
     <line class="fil0 str1" x1="318.7" y1="308.92" x2="313.16" y2= "298.14" />
     <line class="fil0 str1" x1="307.71" y1="311.89" x2="313.16" y2= "298.14" />
     <line class="fil0 str1" x1="307.71" y1="284.39" x2="313.16" y2= "298.14" />
     <line class="fil0 str1" x1="318.7" y1="287.35" x2="313.16" y2= "298.14" />
     <line class="fil0 str1" x1="318.7" y1="287.35" x2="307.71" y2= "284.39" />
     <line class="fil0 str1" x1="318.7" y1="287.35" x2="326.26" y2= "284.06" />
     <polyline class="fil0 str1" points="318.87,273.2 318.7,287.35 329.2,298.14 "/>
     <line class="fil0 str1" x1="307.71" y1="311.89" x2="293.95" y2= "317.36" />
     <line class="fil0 str1" x1="304.74" y1="322.9" x2="293.95" y2= "317.36" />
     <line class="fil0 str1" x1="304.74" y1="322.9" x2="307.71" y2= "311.89" />
     <line class="fil0 str1" x1="304.74" y1="322.9" x2="308.03" y2= "330.46" />
     <polyline class="fil0 str1" points="318.87,323.05 304.74,322.9 293.95,333.38 "/>
     <polyline class="fil0 str1" points="269.03,323.05 283.17,322.9 293.95,333.38 "/>
     <line class="fil0 str1" x1="283.17" y1="322.9" x2="279.9" y2= "330.46" />
     <line class="fil0 str1" x1="283.17" y1="322.9" x2="280.2" y2= "311.89" />
     <line class="fil0 str1" x1="283.17" y1="322.9" x2="293.95" y2= "317.36" />
     <line class="fil0 str1" x1="280.2" y1="311.89" x2="293.95" y2= "317.36" />
     <polyline class="fil0 str1" points="269.03,273.2 269.2,287.35 258.71,298.14 "/>
     <line class="fil0 str1" x1="269.2" y1="287.35" x2="261.65" y2= "284.06" />
     <line class="fil0 str1" x1="269.2" y1="287.35" x2="280.2" y2= "284.39" />
     <line class="fil0 str1" x1="269.2" y1="287.35" x2="274.75" y2= "298.14" />
     <line class="fil0 str1" x1="280.2" y1="284.39" x2="274.75" y2= "298.14" />
     <line class="fil0 str1" x1="280.2" y1="311.89" x2="274.75" y2= "298.14" />
     <line class="fil0 str1" x1="269.2" y1="308.92" x2="274.75" y2= "298.14" />
     <line class="fil0 str1" x1="269.2" y1="308.92" x2="280.2" y2= "311.89" />
     <line class="fil0 str1" x1="269.2" y1="308.92" x2="261.65" y2= "312.2" />
     <polyline class="fil0 str1" points="269.03,323.05 269.2,308.92 258.71,298.14 "/>
     <line class="fil0 str1" x1="280.2" y1="284.39" x2="293.95" y2= "278.92" />
     <line class="fil0 str1" x1="283.17" y1="273.37" x2="293.95" y2= "278.92" />
     <line class="fil0 str1" x1="283.17" y1="273.37" x2="280.2" y2= "284.39" />
     <line class="fil0 str1" x1="283.17" y1="273.37" x2="279.9" y2= "265.81" />
     <polyline class="fil0 str1" points="269.03,273.2 283.17,273.37 293.95,262.89 "/>
    </g>
    <g>
     <polyline class="fil0 str1" points="102.82,272.55 88.67,272.72 77.89,262.24 "/>
     <line class="fil0 str1" x1="88.67" y1="272.72" x2="91.96" y2= "265.17" />
     <line class="fil0 str1" x1="88.67" y1="272.72" x2="91.66" y2= "283.74" />
     <line class="fil0 str1" x1="88.67" y1="272.72" x2="77.89" y2= "278.27" />
     <line class="fil0 str1" x1="91.66" y1="283.74" x2="77.89" y2= "278.27" />
     <polyline class="fil0 str1" points="102.82,322.4 102.66,308.27 113.14,297.49 "/>
     <line class="fil0 str1" x1="102.66" y1="308.27" x2="110.21" y2= "311.56" />
     <line class="fil0 str1" x1="102.66" y1="308.27" x2="91.66" y2= "311.24" />
     <line class="fil0 str1" x1="102.66" y1="308.27" x2="97.11" y2= "297.49" />
     <line class="fil0 str1" x1="91.66" y1="311.24" x2="97.11" y2= "297.49" />
     <line class="fil0 str1" x1="91.66" y1="283.74" x2="97.11" y2= "297.49" />
     <line class="fil0 str1" x1="102.66" y1="286.7" x2="97.11" y2= "297.49" />
     <line class="fil0 str1" x1="102.66" y1="286.7" x2="91.66" y2= "283.74" />
     <line class="fil0 str1" x1="102.66" y1="286.7" x2="110.21" y2= "283.41" />
     <polyline class="fil0 str1" points="102.82,272.55 102.66,286.7 113.14,297.49 "/>
     <line class="fil0 str1" x1="91.66" y1="311.24" x2="77.89" y2= "316.7" />
     <line class="fil0 str1" x1="88.67" y1="322.26" x2="77.89" y2= "316.7" />
     <line class="fil0 str1" x1="88.67" y1="322.26" x2="91.66" y2= "311.24" />
     <line class="fil0 str1" x1="88.67" y1="322.26" x2="91.96" y2= "329.81" />
     <polyline class="fil0 str1" points="102.82,322.4 88.67,322.26 77.89,332.73 "/>
     <polyline class="fil0 str1" points="52.97,322.4 67.1,322.26 77.89,332.73 "/>
     <line class="fil0 str1" x1="67.1" y1="322.26" x2="63.82" y2= "329.81" />
     <line class="fil0 str1" x1="67.1" y1="322.26" x2="64.14" y2= "311.24" />
     <line class="fil0 str1" x1="67.1" y1="322.26" x2="77.89" y2= "316.7" />
     <line class="fil0 str1" x1="64.14" y1="311.24" x2="77.89" y2= "316.7" />
     <polyline class="fil0 str1" points="52.97,272.55 53.12,286.7 42.64,297.49 "/>
     <line class="fil0 str1" x1="53.12" y1="286.7" x2="45.57" y2= "283.41" />
     <line class="fil0 str1" x1="53.12" y1="286.7" x2="64.14" y2= "283.74" />
     <line class="fil0 str1" x1="53.12" y1="286.7" x2="58.67" y2= "297.49" />
     <line class="fil0 str1" x1="64.14" y1="283.74" x2="58.67" y2= "297.49" />
     <line class="fil0 str1" x1="64.14" y1="311.24" x2="58.67" y2= "297.49" />
     <line class="fil0 str1" x1="53.12" y1="308.27" x2="58.67" y2= "297.49" />
     <line class="fil0 str1" x1="53.12" y1="308.27" x2="64.14" y2= "311.24" />
     <line class="fil0 str1" x1="53.12" y1="308.27" x2="45.57" y2= "311.56" />
     <polyline class="fil0 str1" points="52.97,322.4 53.12,308.27 42.64,297.49 "/>
     <line class="fil0 str1" x1="64.14" y1="283.74" x2="77.89" y2= "278.27" />
     <line class="fil0 str1" x1="67.1" y1="272.72" x2="77.89" y2= "278.27" />
     <line class="fil0 str1" x1="67.1" y1="272.72" x2="64.14" y2= "283.74" />
     <line class="fil0 str1" x1="67.1" y1="272.72" x2="63.82" y2= "265.17" />
     <polyline class="fil0 str1" points="52.97,272.55 67.1,272.72 77.89,262.24 "/>
    </g>
    <path class="fil0 str0" d="M78.69 261.04c24.94,0 35.25,10.31 35.25,35.24 0,24.92 -10.31,35.24 -35.25,35.24 -24.92,0 -35.24,-10.33 -35.24,-35.24 0,-24.93 10.33,-35.24 35.24,-35.24z"/>
    <path class="fil0 str0" d="M151.3 261.04c24.92,0 35.24,10.31 35.24,35.24 0,24.92 -10.33,35.24 -35.24,35.24 -24.92,0 -35.25,-10.33 -35.25,-35.24 0,-24.93 10.33,-35.24 35.25,-35.24z"/>
    <g>
     <polyline class="fil0 str1" points="176.81,272.22 162.68,272.39 151.9,261.91 "/>
     <line class="fil0 str1" x1="162.68" y1="272.39" x2="165.97" y2= "264.83" />
     <line class="fil0 str1" x1="162.68" y1="272.39" x2="165.65" y2= "283.4" />
     <line class="fil0 str1" x1="162.68" y1="272.39" x2="151.9" y2= "277.94" />
     <line class="fil0 str1" x1="165.65" y1="283.4" x2="151.9" y2= "277.94" />
     <polyline class="fil0 str1" points="176.81,322.07 176.66,307.94 187.14,297.16 "/>
     <line class="fil0 str1" x1="176.66" y1="307.94" x2="184.21" y2= "311.23" />
     <line class="fil0 str1" x1="176.66" y1="307.94" x2="165.65" y2= "310.91" />
     <line class="fil0 str1" x1="176.66" y1="307.94" x2="171.12" y2= "297.16" />
     <line class="fil0 str1" x1="165.65" y1="310.91" x2="171.12" y2= "297.16" />
     <line class="fil0 str1" x1="165.65" y1="283.4" x2="171.12" y2= "297.16" />
     <line class="fil0 str1" x1="176.66" y1="286.37" x2="171.12" y2= "297.16" />
     <line class="fil0 str1" x1="176.66" y1="286.37" x2="165.65" y2= "283.4" />
     <line class="fil0 str1" x1="176.66" y1="286.37" x2="184.21" y2= "283.07" />
     <polyline class="fil0 str1" points="176.81,272.22 176.66,286.37 187.14,297.16 "/>
     <line class="fil0 str1" x1="165.65" y1="310.91" x2="151.9" y2= "316.38" />
     <line class="fil0 str1" x1="162.68" y1="321.92" x2="151.9" y2= "316.38" />
     <line class="fil0 str1" x1="162.68" y1="321.92" x2="165.65" y2= "310.91" />
     <line class="fil0 str1" x1="162.68" y1="321.92" x2="165.97" y2= "329.48" />
     <polyline class="fil0 str1" points="176.81,322.07 162.68,321.92 151.9,332.4 "/>
     <polyline class="fil0 str1" points="126.97,322.07 141.11,321.92 151.9,332.4 "/>
     <line class="fil0 str1" x1="141.11" y1="321.92" x2="137.82" y2= "329.48" />
     <line class="fil0 str1" x1="141.11" y1="321.92" x2="138.12" y2= "310.91" />
     <line class="fil0 str1" x1="141.11" y1="321.92" x2="151.9" y2= "316.38" />
     <line class="fil0 str1" x1="138.12" y1="310.91" x2="151.9" y2= "316.38" />
     <line class="fil0 str1" x1="127.13" y1="286.37" x2="138.12" y2= "283.4" />
     <line class="fil0 str1" x1="127.13" y1="286.37" x2="132.67" y2= "297.16" />
     <line class="fil0 str1" x1="138.12" y1="283.4" x2="132.67" y2= "297.16" />
     <line class="fil0 str1" x1="138.12" y1="310.91" x2="132.67" y2= "297.16" />
     <line class="fil0 str1" x1="127.13" y1="307.94" x2="132.67" y2= "297.16" />
     <line class="fil0 str1" x1="127.13" y1="307.94" x2="138.12" y2= "310.91" />
     <line class="fil0 str1" x1="138.12" y1="283.4" x2="151.9" y2= "277.94" />
     <line class="fil0 str1" x1="141.11" y1="272.39" x2="151.9" y2= "277.94" />
     <line class="fil0 str1" x1="141.11" y1="272.39" x2="138.12" y2= "283.4" />
     <line class="fil0 str1" x1="141.11" y1="272.39" x2="137.82" y2= "264.83" />
     <polyline class="fil0 str1" points="126.97,272.22 141.11,272.39 151.9,261.91 "/>
     <polyline class="fil0 str1" points="126.97,272.22 127.13,286.37 116.65,297.16 "/>
     <line class="fil0 str1" x1="127.13" y1="286.37" x2="119.57" y2= "283.07" />
     <line class="fil0 str1" x1="127.13" y1="307.94" x2="119.57" y2= "311.23" />
     <polyline class="fil0 str1" points="126.97,322.07 127.13,307.94 116.65,297.16 "/>
    </g>
   </g>
  </g>
 </g>
</svg>
