<svg xmlns="http://www.w3.org/2000/svg" xml:space="preserve" width="0.590551in" height="0.590551in" version="1.1" style="shape-rendering:geometricPrecision; text-rendering:geometricPrecision; image-rendering:optimizeQuality; fill-rule:evenodd; clip-rule:evenodd"
viewBox="0 0 590.55 590.55"
 xmlns:xlink="http://www.w3.org/1999/xlink"
 xmlns:xodm="http://www.corel.com/coreldraw/odm/2003">
 <defs>
  <style type="text/css">
   <![CDATA[
    .str0 {stroke:#9f7d48;stroke-width:7.87;stroke-miterlimit:2.61313}
    .str1 {stroke:#9f7d48;stroke-width:3.94;stroke-miterlimit:2.61313}
    .fil0 {fill:none}
   ]]>
  </style>
 </defs>
 
 <g id="Layer_x0020_1_0">
  
  <g id="_1737228575728">
   <polyline class="fil0 str0" points="389.51,201.04 335.26,201.66 293.89,161.42 "/>
   <polyline class="fil0 str0" points="198.26,201.04 252.51,201.66 293.89,161.42 "/>
   <path class="fil0 str0" d="M293.89 161.42c-74.69,0 -135.24,60.56 -135.24,135.26 0,74.7 60.56,135.24 135.24,135.24 74.7,0 135.24,-60.54 135.24,-135.24 0,-74.7 -60.54,-135.26 -135.24,-135.26z"/>
   <line class="fil0 str0" x1="420.47" y1="344.31" x2="536.5" y2= "344.31" />
   <line class="fil0 str0" x1="51.29" y1="344.31" x2="167.31" y2= "344.31" />
   <line class="fil0 str0" x1="167.31" y1="249.05" x2="51.29" y2= "249.05" />
   <line class="fil0 str0" x1="536.5" y1="249.05" x2="420.47" y2= "249.05" />
   <path class="fil0 str0" d="M536.5 344.31c33.68,0 47.63,-13.95 47.63,-47.63 0,-33.68 -13.95,-47.63 -47.63,-47.63"/>
   <path class="fil0 str0" d="M51.29 344.31c-33.69,0 -47.65,-13.95 -47.65,-47.63 0,-33.68 13.95,-47.63 47.65,-47.63"/>
   <line class="fil0 str0" x1="335.26" y1="201.66" x2="347.88" y2= "172.67" />
   <line class="fil0 str0" x1="335.26" y1="201.66" x2="346.69" y2= "243.87" />
   <line class="fil0 str0" x1="335.26" y1="201.66" x2="293.89" y2= "222.94" />
   <line class="fil0 str0" x1="346.69" y1="243.87" x2="293.89" y2= "222.94" />
   <polyline class="fil0 str0" points="389.51,392.32 388.9,338.05 429.13,296.68 "/>
   <line class="fil0 str0" x1="388.9" y1="338.05" x2="417.89" y2= "350.68" />
   <line class="fil0 str0" x1="388.9" y1="338.05" x2="346.69" y2= "349.48" />
   <line class="fil0 str0" x1="388.9" y1="338.05" x2="367.62" y2= "296.68" />
   <line class="fil0 str0" x1="346.69" y1="349.48" x2="367.62" y2= "296.68" />
   <line class="fil0 str0" x1="346.69" y1="243.87" x2="367.62" y2= "296.68" />
   <line class="fil0 str0" x1="388.9" y1="255.31" x2="367.62" y2= "296.68" />
   <line class="fil0 str0" x1="388.9" y1="255.31" x2="346.69" y2= "243.87" />
   <line class="fil0 str0" x1="388.9" y1="255.31" x2="417.89" y2= "242.68" />
   <polyline class="fil0 str0" points="389.51,201.04 388.9,255.31 429.13,296.68 "/>
   <line class="fil0 str0" x1="346.69" y1="349.48" x2="293.89" y2= "370.42" />
   <line class="fil0 str0" x1="335.26" y1="391.7" x2="293.89" y2= "370.42" />
   <line class="fil0 str0" x1="335.26" y1="391.7" x2="346.69" y2= "349.48" />
   <line class="fil0 str0" x1="335.26" y1="391.7" x2="347.88" y2= "420.69" />
   <polyline class="fil0 str0" points="389.51,392.32 335.26,391.7 293.89,431.92 "/>
   <polyline class="fil0 str0" points="198.26,392.32 252.51,391.7 293.89,431.92 "/>
   <line class="fil0 str0" x1="252.51" y1="391.7" x2="239.9" y2= "420.69" />
   <line class="fil0 str0" x1="252.51" y1="391.7" x2="241.1" y2= "349.48" />
   <line class="fil0 str0" x1="252.51" y1="391.7" x2="293.89" y2= "370.42" />
   <line class="fil0 str0" x1="241.1" y1="349.48" x2="293.89" y2= "370.42" />
   <polyline class="fil0 str0" points="198.26,201.04 198.87,255.31 158.64,296.68 "/>
   <line class="fil0 str0" x1="198.87" y1="255.31" x2="169.9" y2= "242.68" />
   <line class="fil0 str0" x1="198.87" y1="255.31" x2="241.1" y2= "243.87" />
   <line class="fil0 str0" x1="198.87" y1="255.31" x2="220.15" y2= "296.68" />
   <line class="fil0 str0" x1="241.1" y1="243.87" x2="220.15" y2= "296.68" />
   <line class="fil0 str0" x1="241.1" y1="349.48" x2="220.15" y2= "296.68" />
   <line class="fil0 str0" x1="198.87" y1="338.05" x2="220.15" y2= "296.68" />
   <line class="fil0 str0" x1="198.87" y1="338.05" x2="241.1" y2= "349.48" />
   <line class="fil0 str0" x1="198.87" y1="338.05" x2="169.9" y2= "350.68" />
   <polyline class="fil0 str0" points="198.26,392.32 198.87,338.05 158.64,296.68 "/>
   <line class="fil0 str0" x1="241.1" y1="243.87" x2="293.89" y2= "222.94" />
   <line class="fil0 str0" x1="252.51" y1="201.66" x2="293.89" y2= "222.94" />
   <line class="fil0 str0" x1="252.51" y1="201.66" x2="241.1" y2= "243.87" />
   <line class="fil0 str0" x1="252.51" y1="201.66" x2="239.9" y2= "172.67" />
   <path class="fil0 str1" d="M545.38 296.68c0,-13.7 5.67,-19.37 19.37,-19.37 13.69,0 19.37,5.68 19.37,19.37 0,13.69 -5.68,19.37 -19.37,19.37 -13.71,0 -19.37,-5.68 -19.37,-19.37z"/>
   <path class="fil0 str1" d="M545.38 296.68c0,-13.7 -5.68,-19.37 -19.37,-19.37 -13.71,0 -19.39,5.68 -19.39,19.37 0,13.69 5.68,19.37 19.39,19.37 13.69,0 19.37,-5.68 19.37,-19.37z"/>
   <path class="fil0 str1" d="M467.89 296.68c0,-13.7 5.66,-19.37 19.35,-19.37 13.71,0 19.37,5.68 19.37,19.37 0,13.69 -5.66,19.37 -19.37,19.37 -13.69,0 -19.35,-5.68 -19.35,-19.37z"/>
   <path class="fil0 str1" d="M467.89 296.68c0,-13.7 -5.68,-19.37 -19.39,-19.37 -13.69,0 -19.37,5.68 -19.37,19.37 0,13.69 5.68,19.37 19.37,19.37 13.71,0 19.39,-5.68 19.39,-19.37z"/>
   <path class="fil0 str1" d="M119.9 296.68c0,-13.7 5.68,-19.37 19.37,-19.37 13.71,0 19.37,5.68 19.37,19.37 0,13.69 -5.67,19.37 -19.37,19.37 -13.69,0 -19.37,-5.68 -19.37,-19.37z"/>
   <path class="fil0 str1" d="M119.9 296.68c0,-13.7 -5.68,-19.37 -19.37,-19.37 -13.71,0 -19.37,5.68 -19.37,19.37 0,13.69 5.67,19.37 19.37,19.37 13.69,0 19.37,-5.68 19.37,-19.37z"/>
   <path class="fil0 str1" d="M42.41 296.68c0,-13.7 5.66,-19.37 19.37,-19.37 13.69,0 19.37,5.68 19.37,19.37 0,13.69 -5.68,19.37 -19.37,19.37 -13.71,0 -19.37,-5.68 -19.37,-19.37z"/>
   <path class="fil0 str1" d="M42.41 296.68c0,-13.7 -5.68,-19.37 -19.39,-19.37 -13.69,0 -19.37,5.68 -19.37,19.37 0,13.69 5.68,19.37 19.37,19.37 13.71,0 19.39,-5.68 19.39,-19.37z"/>
   <line class="fil0 str0" x1="426.98" y1="272.61" x2="577.59" y2= "272.61" />
   <line class="fil0 str0" x1="426.98" y1="320.76" x2="577.59" y2= "320.76" />
   <line class="fil0 str0" x1="160.79" y1="320.76" x2="10.18" y2= "320.76" />
   <line class="fil0 str0" x1="160.79" y1="272.61" x2="10.18" y2= "272.61" />
  </g>
 </g>
</svg>
