<svg xmlns="http://www.w3.org/2000/svg" xml:space="preserve" width="0.590551in" height="0.590551in" version="1.1" style="shape-rendering:geometricPrecision; text-rendering:geometricPrecision; image-rendering:optimizeQuality; fill-rule:evenodd; clip-rule:evenodd"
viewBox="0 0 590.55 590.55"
 xmlns:xlink="http://www.w3.org/1999/xlink"
 xmlns:xodm="http://www.corel.com/coreldraw/odm/2003">
 <defs>
  <style type="text/css">
   <![CDATA[
    .str1 {stroke:#9f7d48;stroke-width:7.87;stroke-miterlimit:4}
    .str0 {stroke:#9f7d48;stroke-width:3.94;stroke-miterlimit:4}
    .fil0 {fill:none;fill-rule:nonzero}
   ]]>
  </style>
 </defs>
 
 <g id="Layer_x0020_1_0">
  
  <g id="_2055941221632">
   <path class="fil0 str0" d="M221.39 235c-34.06,0 -61.66,27.61 -61.66,61.66 0,34.06 27.61,61.67 61.66,61.67 34.06,0 61.66,-27.61 61.66,-61.67 0,-34.05 -27.61,-61.66 -61.66,-61.66z"/>
   <polyline class="fil0 str0" points="264.99,253.07 240.26,253.35 221.39,235 "/>
   <line class="fil0 str0" x1="240.26" y1="253.35" x2="246.01" y2= "240.13" />
   <line class="fil0 str0" x1="240.26" y1="253.35" x2="245.46" y2= "272.59" />
   <line class="fil0 str0" x1="240.26" y1="253.35" x2="221.39" y2= "263.05" />
   <line class="fil0 str0" x1="245.46" y1="272.59" x2="221.39" y2= "263.05" />
   <polyline class="fil0 str0" points="264.99,340.27 264.71,315.53 283.05,296.67 "/>
   <line class="fil0 str0" x1="264.71" y1="315.53" x2="277.93" y2= "321.28" />
   <line class="fil0 str0" x1="264.71" y1="315.53" x2="245.46" y2= "320.74" />
   <line class="fil0 str0" x1="264.71" y1="315.53" x2="255.01" y2= "296.67" />
   <line class="fil0 str0" x1="245.46" y1="320.74" x2="255.01" y2= "296.67" />
   <line class="fil0 str0" x1="245.46" y1="272.59" x2="255.01" y2= "296.67" />
   <line class="fil0 str0" x1="264.71" y1="277.8" x2="255.01" y2= "296.67" />
   <line class="fil0 str0" x1="264.71" y1="277.8" x2="245.46" y2= "272.59" />
   <line class="fil0 str0" x1="264.71" y1="277.8" x2="277.93" y2= "272.05" />
   <polyline class="fil0 str0" points="264.99,253.07 264.71,277.8 283.05,296.67 "/>
   <line class="fil0 str0" x1="245.46" y1="320.74" x2="221.39" y2= "330.29" />
   <line class="fil0 str0" x1="240.26" y1="339.99" x2="221.39" y2= "330.29" />
   <line class="fil0 str0" x1="240.26" y1="339.99" x2="245.46" y2= "320.74" />
   <line class="fil0 str0" x1="240.26" y1="339.99" x2="246.01" y2= "353.2" />
   <polyline class="fil0 str0" points="264.99,340.27 240.26,339.99 221.39,358.33 "/>
   <polyline class="fil0 str0" points="177.79,340.27 202.52,339.99 221.39,358.33 "/>
   <line class="fil0 str0" x1="202.52" y1="339.99" x2="196.78" y2= "353.2" />
   <line class="fil0 str0" x1="202.52" y1="339.99" x2="197.31" y2= "320.74" />
   <line class="fil0 str0" x1="202.52" y1="339.99" x2="221.39" y2= "330.29" />
   <line class="fil0 str0" x1="197.31" y1="320.74" x2="221.39" y2= "330.29" />
   <polyline class="fil0 str0" points="177.79,253.07 178.07,277.8 159.73,296.67 "/>
   <line class="fil0 str0" x1="178.07" y1="277.8" x2="164.85" y2= "272.05" />
   <line class="fil0 str0" x1="178.07" y1="277.8" x2="197.31" y2= "272.59" />
   <line class="fil0 str0" x1="178.07" y1="277.8" x2="187.77" y2= "296.67" />
   <line class="fil0 str0" x1="197.31" y1="272.59" x2="187.77" y2= "296.67" />
   <line class="fil0 str0" x1="197.31" y1="320.74" x2="187.77" y2= "296.67" />
   <line class="fil0 str0" x1="178.07" y1="315.53" x2="187.77" y2= "296.67" />
   <line class="fil0 str0" x1="178.07" y1="315.53" x2="197.31" y2= "320.74" />
   <line class="fil0 str0" x1="178.07" y1="315.53" x2="164.85" y2= "321.28" />
   <polyline class="fil0 str0" points="177.79,340.27 178.07,315.53 159.73,296.67 "/>
   <line class="fil0 str0" x1="197.31" y1="272.59" x2="221.39" y2= "263.05" />
   <line class="fil0 str0" x1="202.52" y1="253.35" x2="221.39" y2= "263.05" />
   <line class="fil0 str0" x1="202.52" y1="253.35" x2="197.31" y2= "272.59" />
   <line class="fil0 str0" x1="202.52" y1="253.35" x2="196.78" y2= "240.13" />
   <polyline class="fil0 str0" points="177.79,253.07 202.52,253.35 221.39,235 "/>
   <polygon class="fil0 str1" points="288.01,362.3 154.77,362.3 154.77,231.03 288.01,231.03 "/>
   <polygon class="fil0 str1" points="9.78,362.3 143.02,362.3 143.02,231.03 9.78,231.03 "/>
   <polyline class="fil0 str0" points="120,253.07 95.26,253.35 76.4,235 "/>
   <line class="fil0 str0" x1="95.26" y1="253.35" x2="101.02" y2= "240.13" />
   <line class="fil0 str0" x1="95.26" y1="253.35" x2="100.47" y2= "272.59" />
   <line class="fil0 str0" x1="95.26" y1="253.35" x2="76.4" y2= "263.05" />
   <line class="fil0 str0" x1="100.47" y1="272.59" x2="76.4" y2= "263.05" />
   <polyline class="fil0 str0" points="120,340.27 119.72,315.53 138.06,296.67 "/>
   <line class="fil0 str0" x1="119.72" y1="315.53" x2="132.94" y2= "321.28" />
   <line class="fil0 str0" x1="119.72" y1="315.53" x2="100.47" y2= "320.74" />
   <line class="fil0 str0" x1="119.72" y1="315.53" x2="110.02" y2= "296.67" />
   <line class="fil0 str0" x1="100.47" y1="320.74" x2="110.02" y2= "296.67" />
   <line class="fil0 str0" x1="100.47" y1="272.59" x2="110.02" y2= "296.67" />
   <line class="fil0 str0" x1="119.72" y1="277.8" x2="110.02" y2= "296.67" />
   <line class="fil0 str0" x1="119.72" y1="277.8" x2="100.47" y2= "272.59" />
   <line class="fil0 str0" x1="119.72" y1="277.8" x2="132.94" y2= "272.05" />
   <polyline class="fil0 str0" points="120,253.07 119.72,277.8 138.06,296.67 "/>
   <line class="fil0 str0" x1="100.47" y1="320.74" x2="76.4" y2= "330.29" />
   <line class="fil0 str0" x1="95.26" y1="339.99" x2="76.4" y2= "330.29" />
   <line class="fil0 str0" x1="95.26" y1="339.99" x2="100.47" y2= "320.74" />
   <line class="fil0 str0" x1="95.26" y1="339.99" x2="101.02" y2= "353.2" />
   <polyline class="fil0 str0" points="120,340.27 95.26,339.99 76.4,358.33 "/>
   <polyline class="fil0 str0" points="32.8,340.27 57.54,339.99 76.4,358.33 "/>
   <line class="fil0 str0" x1="57.54" y1="339.99" x2="51.78" y2= "353.2" />
   <line class="fil0 str0" x1="57.54" y1="339.99" x2="52.32" y2= "320.74" />
   <line class="fil0 str0" x1="57.54" y1="339.99" x2="76.4" y2= "330.29" />
   <line class="fil0 str0" x1="52.32" y1="320.74" x2="76.4" y2= "330.29" />
   <polyline class="fil0 str0" points="32.8,253.07 33.08,277.8 14.74,296.67 "/>
   <line class="fil0 str0" x1="33.08" y1="277.8" x2="19.87" y2= "272.05" />
   <line class="fil0 str0" x1="33.08" y1="277.8" x2="52.32" y2= "272.59" />
   <line class="fil0 str0" x1="33.08" y1="277.8" x2="42.78" y2= "296.67" />
   <line class="fil0 str0" x1="52.32" y1="272.59" x2="42.78" y2= "296.67" />
   <line class="fil0 str0" x1="52.32" y1="320.74" x2="42.78" y2= "296.67" />
   <line class="fil0 str0" x1="33.08" y1="315.53" x2="42.78" y2= "296.67" />
   <line class="fil0 str0" x1="33.08" y1="315.53" x2="52.32" y2= "320.74" />
   <line class="fil0 str0" x1="33.08" y1="315.53" x2="19.87" y2= "321.28" />
   <polyline class="fil0 str0" points="32.8,340.27 33.08,315.53 14.74,296.67 "/>
   <line class="fil0 str0" x1="52.32" y1="272.59" x2="76.4" y2= "263.05" />
   <line class="fil0 str0" x1="57.54" y1="253.35" x2="76.4" y2= "263.05" />
   <line class="fil0 str0" x1="57.54" y1="253.35" x2="52.32" y2= "272.59" />
   <line class="fil0 str0" x1="57.54" y1="253.35" x2="51.78" y2= "240.13" />
   <polyline class="fil0 str0" points="32.8,253.07 57.54,253.35 76.4,235 "/>
   <path class="fil0 str0" d="M76.4 235c34.05,0 61.66,27.61 61.66,61.66 0,34.06 -27.61,61.67 -61.66,61.67 -34.06,0 -61.67,-27.61 -61.67,-61.67 0,-34.05 27.61,-61.66 61.67,-61.66z"/>
   <path class="fil0 str0" d="M366.38 235c34.06,0 61.67,27.61 61.67,61.66 0,34.06 -27.61,61.67 -61.67,61.67 -34.06,0 -61.66,-27.61 -61.66,-61.67 0,-34.05 27.61,-61.66 61.66,-61.66z"/>
   <polyline class="fil0 str0" points="322.78,253.07 347.52,253.35 366.38,235 "/>
   <line class="fil0 str0" x1="347.52" y1="253.35" x2="341.76" y2= "240.13" />
   <line class="fil0 str0" x1="347.52" y1="253.35" x2="342.31" y2= "272.59" />
   <line class="fil0 str0" x1="347.52" y1="253.35" x2="366.38" y2= "263.05" />
   <line class="fil0 str0" x1="342.31" y1="272.59" x2="366.38" y2= "263.05" />
   <polyline class="fil0 str0" points="322.78,340.27 323.06,315.53 304.72,296.67 "/>
   <line class="fil0 str0" x1="323.06" y1="315.53" x2="309.84" y2= "321.28" />
   <line class="fil0 str0" x1="323.06" y1="315.53" x2="342.31" y2= "320.74" />
   <line class="fil0 str0" x1="323.06" y1="315.53" x2="332.76" y2= "296.67" />
   <line class="fil0 str0" x1="342.31" y1="320.74" x2="332.76" y2= "296.67" />
   <line class="fil0 str0" x1="342.31" y1="272.59" x2="332.76" y2= "296.67" />
   <line class="fil0 str0" x1="323.06" y1="277.8" x2="332.76" y2= "296.67" />
   <line class="fil0 str0" x1="323.06" y1="277.8" x2="342.31" y2= "272.59" />
   <line class="fil0 str0" x1="323.06" y1="277.8" x2="309.84" y2= "272.05" />
   <polyline class="fil0 str0" points="322.78,253.07 323.06,277.8 304.72,296.67 "/>
   <line class="fil0 str0" x1="342.31" y1="320.74" x2="366.38" y2= "330.29" />
   <line class="fil0 str0" x1="347.52" y1="339.99" x2="366.38" y2= "330.29" />
   <line class="fil0 str0" x1="347.52" y1="339.99" x2="342.31" y2= "320.74" />
   <line class="fil0 str0" x1="347.52" y1="339.99" x2="341.76" y2= "353.2" />
   <polyline class="fil0 str0" points="322.78,340.27 347.52,339.99 366.38,358.33 "/>
   <polyline class="fil0 str0" points="409.98,340.27 385.24,339.99 366.38,358.33 "/>
   <line class="fil0 str0" x1="385.24" y1="339.99" x2="391" y2= "353.2" />
   <line class="fil0 str0" x1="385.24" y1="339.99" x2="390.45" y2= "320.74" />
   <line class="fil0 str0" x1="385.24" y1="339.99" x2="366.38" y2= "330.29" />
   <line class="fil0 str0" x1="390.45" y1="320.74" x2="366.38" y2= "330.29" />
   <polyline class="fil0 str0" points="409.98,253.07 409.7,277.8 428.04,296.67 "/>
   <line class="fil0 str0" x1="409.7" y1="277.8" x2="422.91" y2= "272.05" />
   <line class="fil0 str0" x1="409.7" y1="277.8" x2="390.45" y2= "272.59" />
   <line class="fil0 str0" x1="409.7" y1="277.8" x2="400" y2= "296.67" />
   <line class="fil0 str0" x1="390.45" y1="272.59" x2="400" y2= "296.67" />
   <line class="fil0 str0" x1="390.45" y1="320.74" x2="400" y2= "296.67" />
   <line class="fil0 str0" x1="409.7" y1="315.53" x2="400" y2= "296.67" />
   <line class="fil0 str0" x1="409.7" y1="315.53" x2="390.45" y2= "320.74" />
   <line class="fil0 str0" x1="409.7" y1="315.53" x2="422.91" y2= "321.28" />
   <polyline class="fil0 str0" points="409.98,340.27 409.7,315.53 428.04,296.67 "/>
   <line class="fil0 str0" x1="390.45" y1="272.59" x2="366.38" y2= "263.05" />
   <line class="fil0 str0" x1="385.24" y1="253.35" x2="366.38" y2= "263.05" />
   <line class="fil0 str0" x1="385.24" y1="253.35" x2="390.45" y2= "272.59" />
   <line class="fil0 str0" x1="385.24" y1="253.35" x2="391" y2= "240.13" />
   <polyline class="fil0 str0" points="409.98,253.07 385.24,253.35 366.38,235 "/>
   <polygon class="fil0 str1" points="299.76,362.3 433,362.3 433,231.03 299.76,231.03 "/>
   <polygon class="fil0 str1" points="577.99,362.3 444.75,362.3 444.75,231.03 577.99,231.03 "/>
   <polyline class="fil0 str0" points="467.77,253.07 492.51,253.35 511.37,235 "/>
   <line class="fil0 str0" x1="492.51" y1="253.35" x2="486.75" y2= "240.13" />
   <line class="fil0 str0" x1="492.51" y1="253.35" x2="487.3" y2= "272.59" />
   <line class="fil0 str0" x1="492.51" y1="253.35" x2="511.37" y2= "263.05" />
   <line class="fil0 str0" x1="487.3" y1="272.59" x2="511.37" y2= "263.05" />
   <polyline class="fil0 str0" points="467.77,340.27 468.05,315.53 449.71,296.67 "/>
   <line class="fil0 str0" x1="468.05" y1="315.53" x2="454.83" y2= "321.28" />
   <line class="fil0 str0" x1="468.05" y1="315.53" x2="487.3" y2= "320.74" />
   <line class="fil0 str0" x1="468.05" y1="315.53" x2="477.75" y2= "296.67" />
   <line class="fil0 str0" x1="487.3" y1="320.74" x2="477.75" y2= "296.67" />
   <line class="fil0 str0" x1="487.3" y1="272.59" x2="477.75" y2= "296.67" />
   <line class="fil0 str0" x1="468.05" y1="277.8" x2="477.75" y2= "296.67" />
   <line class="fil0 str0" x1="468.05" y1="277.8" x2="487.3" y2= "272.59" />
   <line class="fil0 str0" x1="468.05" y1="277.8" x2="454.83" y2= "272.05" />
   <polyline class="fil0 str0" points="467.77,253.07 468.05,277.8 449.71,296.67 "/>
   <line class="fil0 str0" x1="487.3" y1="320.74" x2="511.37" y2= "330.29" />
   <line class="fil0 str0" x1="492.51" y1="339.99" x2="511.37" y2= "330.29" />
   <line class="fil0 str0" x1="492.51" y1="339.99" x2="487.3" y2= "320.74" />
   <line class="fil0 str0" x1="492.51" y1="339.99" x2="486.75" y2= "353.2" />
   <polyline class="fil0 str0" points="467.77,340.27 492.51,339.99 511.37,358.33 "/>
   <polyline class="fil0 str0" points="554.97,340.27 530.23,339.99 511.37,358.33 "/>
   <line class="fil0 str0" x1="530.23" y1="339.99" x2="535.99" y2= "353.2" />
   <line class="fil0 str0" x1="530.23" y1="339.99" x2="535.44" y2= "320.74" />
   <line class="fil0 str0" x1="530.23" y1="339.99" x2="511.37" y2= "330.29" />
   <line class="fil0 str0" x1="535.44" y1="320.74" x2="511.37" y2= "330.29" />
   <polyline class="fil0 str0" points="554.97,253.07 554.69,277.8 573.03,296.67 "/>
   <line class="fil0 str0" x1="554.69" y1="277.8" x2="567.91" y2= "272.05" />
   <line class="fil0 str0" x1="554.69" y1="277.8" x2="535.44" y2= "272.59" />
   <line class="fil0 str0" x1="554.69" y1="277.8" x2="544.99" y2= "296.67" />
   <line class="fil0 str0" x1="535.44" y1="272.59" x2="544.99" y2= "296.67" />
   <line class="fil0 str0" x1="535.44" y1="320.74" x2="544.99" y2= "296.67" />
   <line class="fil0 str0" x1="554.69" y1="315.53" x2="544.99" y2= "296.67" />
   <line class="fil0 str0" x1="554.69" y1="315.53" x2="535.44" y2= "320.74" />
   <line class="fil0 str0" x1="554.69" y1="315.53" x2="567.91" y2= "321.28" />
   <polyline class="fil0 str0" points="554.97,340.27 554.69,315.53 573.03,296.67 "/>
   <line class="fil0 str0" x1="535.44" y1="272.59" x2="511.37" y2= "263.05" />
   <line class="fil0 str0" x1="530.23" y1="253.35" x2="511.37" y2= "263.05" />
   <line class="fil0 str0" x1="530.23" y1="253.35" x2="535.44" y2= "272.59" />
   <line class="fil0 str0" x1="530.23" y1="253.35" x2="535.99" y2= "240.13" />
   <polyline class="fil0 str0" points="554.97,253.07 530.23,253.35 511.37,235 "/>
   <path class="fil0 str0" d="M511.37 235c-34.06,0 -61.66,27.61 -61.66,61.66 0,34.06 27.61,61.67 61.66,61.67 34.06,0 61.66,-27.61 61.66,-61.67 0,-34.05 -27.61,-61.66 -61.66,-61.66z"/>
  </g>
 </g>
</svg>
