<svg xmlns="http://www.w3.org/2000/svg" xml:space="preserve" width="0.590551in" height="0.590551in" version="1.1" style="shape-rendering:geometricPrecision; text-rendering:geometricPrecision; image-rendering:optimizeQuality; fill-rule:evenodd; clip-rule:evenodd"
viewBox="0 0 590.55 590.55"
 xmlns:xlink="http://www.w3.org/1999/xlink"
 xmlns:xodm="http://www.corel.com/coreldraw/odm/2003">
 <defs>
  <style type="text/css">
   <![CDATA[
    .str0 {stroke:#9f7d48;stroke-width:7.87;stroke-miterlimit:2.61313}
    .str1 {stroke:#9f7d48;stroke-width:3.94;stroke-miterlimit:2.61313}
    .fil0 {fill:none}
   ]]>
  </style>
 </defs>
 
 <g id="Layer_x0020_1_0">
  
  <g id="_2826421049040">
   <path class="fil0 str0" d="M151.1 248.72c-34.47,0 -64.45,0.47 -98.92,0.47 -33.59,0 -47.5,13.91 -47.5,47.48 0,33.59 13.91,47.48 47.5,47.48 34.47,0 62.03,0.65 96.5,0.65"/>
   <g id="_1737228598336">
    <polyline class="fil0 str1" points="382.69,261.98 402.87,262.22 418.27,247.24 "/>
    <line class="fil0 str1" x1="402.87" y1="262.22" x2="398.19" y2= "251.43" />
    <line class="fil0 str1" x1="402.87" y1="262.22" x2="398.63" y2= "277.92" />
    <line class="fil0 str1" x1="402.87" y1="262.22" x2="418.27" y2= "270.13" />
    <line class="fil0 str1" x1="398.63" y1="277.92" x2="418.27" y2= "270.13" />
    <polyline class="fil0 str1" points="382.69,333.16 382.91,312.96 367.95,297.57 "/>
    <line class="fil0 str1" x1="382.91" y1="312.96" x2="372.13" y2= "317.67" />
    <line class="fil0 str1" x1="382.91" y1="312.96" x2="398.63" y2= "317.22" />
    <line class="fil0 str1" x1="382.91" y1="312.96" x2="390.83" y2= "297.57" />
    <line class="fil0 str1" x1="398.63" y1="317.22" x2="390.83" y2= "297.57" />
    <line class="fil0 str1" x1="398.63" y1="277.92" x2="390.83" y2= "297.57" />
    <line class="fil0 str1" x1="382.91" y1="282.18" x2="390.83" y2= "297.57" />
    <line class="fil0 str1" x1="382.91" y1="282.18" x2="398.63" y2= "277.92" />
    <line class="fil0 str1" x1="382.91" y1="282.18" x2="372.13" y2= "277.48" />
    <polyline class="fil0 str1" points="382.69,261.98 382.91,282.18 367.95,297.57 "/>
    <line class="fil0 str1" x1="398.63" y1="317.22" x2="418.27" y2= "325" />
    <line class="fil0 str1" x1="402.87" y1="332.94" x2="418.27" y2= "325" />
    <line class="fil0 str1" x1="402.87" y1="332.94" x2="398.63" y2= "317.22" />
    <line class="fil0 str1" x1="402.87" y1="332.94" x2="398.19" y2= "343.7" />
    <polyline class="fil0 str1" points="382.69,333.16 402.87,332.94 418.27,347.91 "/>
    <polyline class="fil0 str1" points="453.87,333.16 433.67,332.94 418.27,347.91 "/>
    <line class="fil0 str1" x1="433.67" y1="332.94" x2="438.37" y2= "343.7" />
    <line class="fil0 str1" x1="433.67" y1="332.94" x2="437.92" y2= "317.22" />
    <line class="fil0 str1" x1="433.67" y1="332.94" x2="418.27" y2= "325" />
    <line class="fil0 str1" x1="437.92" y1="317.22" x2="418.27" y2= "325" />
    <polyline class="fil0 str1" points="453.87,261.98 453.64,282.18 468.6,297.57 "/>
    <line class="fil0 str1" x1="453.64" y1="282.18" x2="464.41" y2= "277.48" />
    <line class="fil0 str1" x1="453.64" y1="282.18" x2="437.92" y2= "277.92" />
    <line class="fil0 str1" x1="453.64" y1="282.18" x2="445.71" y2= "297.57" />
    <line class="fil0 str1" x1="437.92" y1="277.92" x2="445.71" y2= "297.57" />
    <line class="fil0 str1" x1="437.92" y1="317.22" x2="445.71" y2= "297.57" />
    <line class="fil0 str1" x1="453.64" y1="312.96" x2="445.71" y2= "297.57" />
    <line class="fil0 str1" x1="453.64" y1="312.96" x2="437.92" y2= "317.22" />
    <line class="fil0 str1" x1="453.64" y1="312.96" x2="464.41" y2= "317.67" />
    <polyline class="fil0 str1" points="453.87,333.16 453.64,312.96 468.6,297.57 "/>
    <line class="fil0 str1" x1="437.92" y1="277.92" x2="418.27" y2= "270.13" />
    <line class="fil0 str1" x1="433.67" y1="262.22" x2="418.27" y2= "270.13" />
    <line class="fil0 str1" x1="433.67" y1="262.22" x2="437.92" y2= "277.92" />
    <line class="fil0 str1" x1="433.67" y1="262.22" x2="438.37" y2= "251.43" />
    <polyline class="fil0 str1" points="453.87,261.98 433.67,262.22 418.27,247.24 "/>
   </g>
   <g id="_1737194271104">
    <polyline class="fil0 str1" points="132.62,262.31 152.8,262.53 168.2,247.56 "/>
    <line class="fil0 str1" x1="152.8" y1="262.53" x2="148.11" y2= "251.74" />
    <line class="fil0 str1" x1="152.8" y1="262.53" x2="148.56" y2= "278.24" />
    <line class="fil0 str1" x1="152.8" y1="262.53" x2="168.2" y2= "270.44" />
    <line class="fil0 str1" x1="148.56" y1="278.24" x2="168.2" y2= "270.44" />
    <polyline class="fil0 str1" points="132.62,333.48 132.85,313.29 117.87,297.89 "/>
    <line class="fil0 str1" x1="132.85" y1="313.29" x2="122.06" y2= "317.98" />
    <line class="fil0 str1" x1="132.85" y1="313.29" x2="148.56" y2= "317.55" />
    <line class="fil0 str1" x1="132.85" y1="313.29" x2="140.76" y2= "297.89" />
    <line class="fil0 str1" x1="148.56" y1="317.55" x2="140.76" y2= "297.89" />
    <line class="fil0 str1" x1="148.56" y1="278.24" x2="140.76" y2= "297.89" />
    <line class="fil0 str1" x1="132.85" y1="282.5" x2="140.76" y2= "297.89" />
    <line class="fil0 str1" x1="132.85" y1="282.5" x2="148.56" y2= "278.24" />
    <line class="fil0 str1" x1="132.85" y1="282.5" x2="122.06" y2= "277.8" />
    <polyline class="fil0 str1" points="132.62,262.31 132.85,282.5 117.87,297.89 "/>
    <line class="fil0 str1" x1="148.56" y1="317.55" x2="168.2" y2= "325.33" />
    <line class="fil0 str1" x1="152.8" y1="333.26" x2="168.2" y2= "325.33" />
    <line class="fil0 str1" x1="152.8" y1="333.26" x2="148.56" y2= "317.55" />
    <line class="fil0 str1" x1="152.8" y1="333.26" x2="148.11" y2= "344.03" />
    <polyline class="fil0 str1" points="132.62,333.48 152.8,333.26 168.2,348.22 "/>
    <polyline class="fil0 str1" points="203.8,333.48 183.6,333.26 168.2,348.22 "/>
    <line class="fil0 str1" x1="183.6" y1="333.26" x2="188.3" y2= "344.03" />
    <line class="fil0 str1" x1="183.6" y1="333.26" x2="187.86" y2= "317.55" />
    <line class="fil0 str1" x1="183.6" y1="333.26" x2="168.2" y2= "325.33" />
    <line class="fil0 str1" x1="187.86" y1="317.55" x2="168.2" y2= "325.33" />
    <polyline class="fil0 str1" points="203.8,262.31 203.57,282.5 218.53,297.89 "/>
    <line class="fil0 str1" x1="203.57" y1="282.5" x2="214.36" y2= "277.8" />
    <line class="fil0 str1" x1="203.57" y1="282.5" x2="187.86" y2= "278.24" />
    <line class="fil0 str1" x1="203.57" y1="282.5" x2="195.64" y2= "297.89" />
    <line class="fil0 str1" x1="187.86" y1="278.24" x2="195.64" y2= "297.89" />
    <line class="fil0 str1" x1="187.86" y1="317.55" x2="195.64" y2= "297.89" />
    <line class="fil0 str1" x1="203.57" y1="313.29" x2="195.64" y2= "297.89" />
    <line class="fil0 str1" x1="203.57" y1="313.29" x2="187.86" y2= "317.55" />
    <line class="fil0 str1" x1="203.57" y1="313.29" x2="214.36" y2= "317.98" />
    <polyline class="fil0 str1" points="203.8,333.48 203.57,313.29 218.53,297.89 "/>
    <line class="fil0 str1" x1="187.86" y1="278.24" x2="168.2" y2= "270.44" />
    <line class="fil0 str1" x1="183.6" y1="262.53" x2="168.2" y2= "270.44" />
    <line class="fil0 str1" x1="183.6" y1="262.53" x2="187.86" y2= "278.24" />
    <line class="fil0 str1" x1="183.6" y1="262.53" x2="188.3" y2= "251.74" />
    <polyline class="fil0 str1" points="203.8,262.31 183.6,262.53 168.2,247.56 "/>
   </g>
   <g id="_1701244490528">
    <polyline class="fil0 str1" points="344.49,246.19 315.85,246.52 294.02,225.28 "/>
    <line class="fil0 str1" x1="315.85" y1="246.52" x2="322.52" y2= "231.22" />
    <line class="fil0 str1" x1="315.85" y1="246.52" x2="321.88" y2= "268.8" />
    <line class="fil0 str1" x1="315.85" y1="246.52" x2="294.02" y2= "257.76" />
    <line class="fil0 str1" x1="321.88" y1="268.8" x2="294.02" y2= "257.76" />
    <polyline class="fil0 str1" points="344.49,347.16 344.16,318.5 365.4,296.67 "/>
    <line class="fil0 str1" x1="344.16" y1="318.5" x2="359.47" y2= "325.17" />
    <line class="fil0 str1" x1="344.16" y1="318.5" x2="321.88" y2= "324.55" />
    <line class="fil0 str1" x1="344.16" y1="318.5" x2="332.93" y2= "296.67" />
    <line class="fil0 str1" x1="321.88" y1="324.55" x2="332.93" y2= "296.67" />
    <line class="fil0 str1" x1="321.88" y1="268.8" x2="332.93" y2= "296.67" />
    <line class="fil0 str1" x1="344.16" y1="274.83" x2="332.93" y2= "296.67" />
    <line class="fil0 str1" x1="344.16" y1="274.83" x2="321.88" y2= "268.8" />
    <line class="fil0 str1" x1="344.16" y1="274.83" x2="359.47" y2= "268.16" />
    <polyline class="fil0 str1" points="344.49,246.19 344.16,274.83 365.4,296.67 "/>
    <line class="fil0 str1" x1="321.88" y1="324.55" x2="294.02" y2= "335.59" />
    <line class="fil0 str1" x1="315.85" y1="346.83" x2="294.02" y2= "335.59" />
    <line class="fil0 str1" x1="315.85" y1="346.83" x2="321.88" y2= "324.55" />
    <line class="fil0 str1" x1="315.85" y1="346.83" x2="322.52" y2= "362.11" />
    <polyline class="fil0 str1" points="344.49,347.16 315.85,346.83 294.02,368.05 "/>
    <polyline class="fil0 str1" points="243.54,347.16 272.19,346.83 294.02,368.05 "/>
    <line class="fil0 str1" x1="272.19" y1="346.83" x2="265.52" y2= "362.11" />
    <line class="fil0 str1" x1="272.19" y1="346.83" x2="266.15" y2= "324.55" />
    <line class="fil0 str1" x1="272.19" y1="346.83" x2="294.02" y2= "335.59" />
    <line class="fil0 str1" x1="266.15" y1="324.55" x2="294.02" y2= "335.59" />
    <polyline class="fil0 str1" points="243.54,246.19 243.87,274.83 222.63,296.67 "/>
    <line class="fil0 str1" x1="243.87" y1="274.83" x2="228.58" y2= "268.16" />
    <line class="fil0 str1" x1="243.87" y1="274.83" x2="266.15" y2= "268.8" />
    <line class="fil0 str1" x1="243.87" y1="274.83" x2="255.1" y2= "296.67" />
    <line class="fil0 str1" x1="266.15" y1="268.8" x2="255.1" y2= "296.67" />
    <line class="fil0 str1" x1="266.15" y1="324.55" x2="255.1" y2= "296.67" />
    <line class="fil0 str1" x1="243.87" y1="318.5" x2="255.1" y2= "296.67" />
    <line class="fil0 str1" x1="243.87" y1="318.5" x2="266.15" y2= "324.55" />
    <line class="fil0 str1" x1="243.87" y1="318.5" x2="228.58" y2= "325.17" />
    <polyline class="fil0 str1" points="243.54,347.16 243.87,318.5 222.63,296.67 "/>
    <line class="fil0 str1" x1="266.15" y1="268.8" x2="294.02" y2= "257.76" />
    <line class="fil0 str1" x1="272.19" y1="246.52" x2="294.02" y2= "257.76" />
    <line class="fil0 str1" x1="272.19" y1="246.52" x2="266.15" y2= "268.8" />
    <line class="fil0 str1" x1="272.19" y1="246.52" x2="265.52" y2= "231.22" />
    <polyline class="fil0 str1" points="243.54,246.19 272.19,246.52 294.02,225.28 "/>
   </g>
   <path class="fil0 str0" d="M294.02 225.28c-39.42,0 -71.39,31.97 -71.39,71.39 0,39.43 31.97,71.39 71.39,71.39 39.41,0 71.39,-31.96 71.39,-71.39 0,-39.42 -31.97,-71.39 -71.39,-71.39z"/>
   <path class="fil0 str0" d="M436.67 248.72c34.47,0 64.45,0.47 98.92,0.47 33.59,0 47.5,13.91 47.5,47.48 0,33.59 -13.91,47.48 -47.5,47.48 -34.47,0 -60.84,0.65 -95.31,0.65"/>
   <path class="fil0 str0" d="M168.35 245.76c-28.56,0 -51.73,23.17 -51.73,51.73 0,28.57 23.17,51.73 51.73,51.73 28.56,0 51.73,-23.16 51.73,-51.73 0,-28.56 -23.17,-51.73 -51.73,-51.73z"/>
   <path class="fil0 str0" d="M419.3 245.76c-28.56,0 -51.73,23.17 -51.73,51.73 0,28.57 23.17,51.73 51.73,51.73 28.56,0 51.73,-23.16 51.73,-51.73 0,-28.56 -23.17,-51.73 -51.73,-51.73z"/>
  </g>
 </g>
</svg>
