<svg xmlns="http://www.w3.org/2000/svg" xml:space="preserve" width="0.590551in" height="0.590551in" version="1.1" style="shape-rendering:geometricPrecision; text-rendering:geometricPrecision; image-rendering:optimizeQuality; fill-rule:evenodd; clip-rule:evenodd"
viewBox="0 0 590.55 590.55"
 xmlns:xlink="http://www.w3.org/1999/xlink"
 xmlns:xodm="http://www.corel.com/coreldraw/odm/2003">
 <defs>
  <style type="text/css">
   <![CDATA[
    .str1 {stroke:#9f7d48;stroke-width:7.87;stroke-miterlimit:2.61313}
    .str2 {stroke:#9f7d48;stroke-width:6.93;stroke-miterlimit:2.61313}
    .str0 {stroke:#9f7d48;stroke-width:3.94;stroke-miterlimit:2.61313}
    .fil0 {fill:none}
   ]]>
  </style>
 </defs>
 
 <g id="Layer_x0020_1_0">
  
  <g id="_1737191162496">
   <g>
    <polyline class="fil0 str0" points="189.13,217.26 215.11,217.55 234.92,198.28 "/>
    <line class="fil0 str0" x1="215.11" y1="217.55" x2="209.07" y2= "203.68" />
    <line class="fil0 str0" x1="215.11" y1="217.55" x2="209.64" y2= "237.77" />
    <line class="fil0 str0" x1="215.11" y1="217.55" x2="234.92" y2= "227.75" />
    <line class="fil0 str0" x1="209.64" y1="237.77" x2="234.92" y2= "227.75" />
    <polyline class="fil0 str0" points="189.13,308.84 189.42,282.87 170.17,263.05 "/>
    <line class="fil0 str0" x1="189.42" y1="282.87" x2="175.55" y2= "288.9" />
    <line class="fil0 str0" x1="189.42" y1="282.87" x2="209.64" y2= "288.32" />
    <line class="fil0 str0" x1="189.42" y1="282.87" x2="199.62" y2= "263.05" />
    <line class="fil0 str0" x1="209.64" y1="288.32" x2="199.62" y2= "263.05" />
    <line class="fil0 str0" x1="209.64" y1="237.77" x2="199.62" y2= "263.05" />
    <line class="fil0 str0" x1="189.42" y1="243.23" x2="199.62" y2= "263.05" />
    <line class="fil0 str0" x1="189.42" y1="243.23" x2="209.64" y2= "237.77" />
    <line class="fil0 str0" x1="189.42" y1="243.23" x2="175.55" y2= "237.19" />
    <polyline class="fil0 str0" points="189.13,217.26 189.42,243.23 170.17,263.05 "/>
    <line class="fil0 str0" x1="209.64" y1="288.32" x2="234.92" y2= "298.36" />
    <line class="fil0 str0" x1="215.11" y1="308.54" x2="234.92" y2= "298.36" />
    <line class="fil0 str0" x1="215.11" y1="308.54" x2="209.64" y2= "288.32" />
    <line class="fil0 str0" x1="215.11" y1="308.54" x2="209.07" y2= "322.43" />
    <polyline class="fil0 str0" points="189.13,308.84 215.11,308.54 234.92,327.81 "/>
    <polyline class="fil0 str0" points="280.72,308.84 254.75,308.54 234.92,327.81 "/>
    <line class="fil0 str0" x1="254.75" y1="308.54" x2="260.79" y2= "322.43" />
    <line class="fil0 str0" x1="254.75" y1="308.54" x2="260.21" y2= "288.32" />
    <line class="fil0 str0" x1="254.75" y1="308.54" x2="234.92" y2= "298.36" />
    <line class="fil0 str0" x1="260.21" y1="288.32" x2="234.92" y2= "298.36" />
    <polyline class="fil0 str0" points="280.72,217.26 280.43,243.23 299.67,263.05 "/>
    <line class="fil0 str0" x1="280.43" y1="243.23" x2="294.29" y2= "237.19" />
    <line class="fil0 str0" x1="280.43" y1="243.23" x2="260.21" y2= "237.77" />
    <line class="fil0 str0" x1="280.43" y1="243.23" x2="270.23" y2= "263.05" />
    <line class="fil0 str0" x1="260.21" y1="237.77" x2="270.23" y2= "263.05" />
    <line class="fil0 str0" x1="260.21" y1="288.32" x2="270.23" y2= "263.05" />
    <line class="fil0 str0" x1="280.43" y1="282.87" x2="270.23" y2= "263.05" />
    <line class="fil0 str0" x1="280.43" y1="282.87" x2="260.21" y2= "288.32" />
    <line class="fil0 str0" x1="260.21" y1="237.77" x2="234.92" y2= "227.75" />
    <line class="fil0 str0" x1="254.75" y1="217.55" x2="234.92" y2= "227.75" />
    <line class="fil0 str0" x1="254.75" y1="217.55" x2="260.21" y2= "237.77" />
    <line class="fil0 str0" x1="254.75" y1="217.55" x2="260.79" y2= "203.68" />
    <polyline class="fil0 str0" points="280.72,217.26 254.75,217.55 234.92,198.28 "/>
    <line class="fil0 str0" x1="280.43" y1="282.87" x2="294.29" y2= "288.9" />
    <polyline class="fil0 str0" points="280.72,308.84 280.43,282.87 299.67,263.05 "/>
   </g>
   <g>
    <polyline class="fil0 str0" points="306.98,374.92 307.28,348.95 288.02,329.14 "/>
    <polyline class="fil0 str0" points="306.98,283.34 307.28,309.31 288.02,329.14 "/>
    <g>
     <polyline class="fil0 str0" points="398.56,374.92 372.59,374.63 352.78,393.9 "/>
     <line class="fil0 str0" x1="372.59" y1="374.63" x2="378.63" y2= "388.51" />
     <line class="fil0 str0" x1="372.59" y1="374.63" x2="378.06" y2= "354.42" />
     <line class="fil0 str0" x1="372.59" y1="374.63" x2="352.78" y2= "364.44" />
     <line class="fil0 str0" x1="378.06" y1="354.42" x2="352.78" y2= "364.44" />
     <polyline class="fil0 str0" points="398.56,283.34 398.28,309.31 417.54,329.14 "/>
     <line class="fil0 str0" x1="398.28" y1="309.31" x2="412.15" y2= "303.27" />
     <line class="fil0 str0" x1="398.28" y1="309.31" x2="378.06" y2= "303.84" />
     <line class="fil0 str0" x1="398.28" y1="309.31" x2="388.08" y2= "329.14" />
     <line class="fil0 str0" x1="378.06" y1="303.84" x2="388.08" y2= "329.14" />
     <line class="fil0 str0" x1="378.06" y1="354.42" x2="388.08" y2= "329.14" />
     <line class="fil0 str0" x1="398.28" y1="348.95" x2="388.08" y2= "329.14" />
     <line class="fil0 str0" x1="398.28" y1="348.95" x2="378.06" y2= "354.42" />
     <line class="fil0 str0" x1="398.28" y1="348.95" x2="412.15" y2= "354.99" />
     <polyline class="fil0 str0" points="398.56,374.92 398.28,348.95 417.54,329.14 "/>
     <line class="fil0 str0" x1="378.06" y1="303.84" x2="352.78" y2= "293.82" />
     <line class="fil0 str0" x1="372.59" y1="283.62" x2="352.78" y2= "293.82" />
     <line class="fil0 str0" x1="372.59" y1="283.62" x2="378.06" y2= "303.84" />
     <line class="fil0 str0" x1="372.59" y1="283.62" x2="378.63" y2= "269.75" />
     <polyline class="fil0 str0" points="398.56,283.34 372.59,283.62 352.78,264.38 "/>
     <polyline class="fil0 str0" points="306.98,283.34 332.97,283.62 352.78,264.38 "/>
     <line class="fil0 str0" x1="332.97" y1="283.62" x2="326.93" y2= "269.75" />
     <line class="fil0 str0" x1="332.97" y1="283.62" x2="327.49" y2= "303.84" />
     <line class="fil0 str0" x1="332.97" y1="283.62" x2="352.78" y2= "293.82" />
     <line class="fil0 str0" x1="327.49" y1="303.84" x2="352.78" y2= "293.82" />
     <line class="fil0 str0" x1="307.28" y1="348.95" x2="293.39" y2= "354.99" />
     <line class="fil0 str0" x1="307.28" y1="348.95" x2="327.49" y2= "354.42" />
     <line class="fil0 str0" x1="307.28" y1="348.95" x2="317.47" y2= "329.14" />
     <line class="fil0 str0" x1="327.49" y1="354.42" x2="317.47" y2= "329.14" />
     <line class="fil0 str0" x1="327.49" y1="303.84" x2="317.47" y2= "329.14" />
     <line class="fil0 str0" x1="307.28" y1="309.31" x2="317.47" y2= "329.14" />
     <line class="fil0 str0" x1="307.28" y1="309.31" x2="327.49" y2= "303.84" />
     <line class="fil0 str0" x1="307.28" y1="309.31" x2="293.39" y2= "303.27" />
     <line class="fil0 str0" x1="327.49" y1="354.42" x2="352.78" y2= "364.44" />
     <line class="fil0 str0" x1="332.97" y1="374.63" x2="352.78" y2= "364.44" />
     <line class="fil0 str0" x1="332.97" y1="374.63" x2="327.49" y2= "354.42" />
     <line class="fil0 str0" x1="332.97" y1="374.63" x2="326.93" y2= "388.51" />
     <polyline class="fil0 str0" points="306.98,374.92 332.97,374.63 352.78,393.9 "/>
    </g>
   </g>
   <g>
    <line class="fil0 str1" x1="299.64" y1="261.7" x2="546.26" y2= "261.7" />
    <line class="fil0 str1" x1="288.03" y1="331.51" x2="45.98" y2= "331.51" />
    <path class="fil0 str1" d="M407.95 290.73c32.15,-7.02 61.57,-13.07 93.74,-20.09 33.59,-7.35 76.96,-24.43 79.39,24.45 3.76,31.29 -43.91,39.37 -76,46.39 -32.15,7.03 -61.91,13.98 -94.07,21.02"/>
    <path class="fil0 str1" d="M178.94 302.41c-32.16,7.01 -60.76,13.27 -92.93,20.29 -33.59,7.35 -77.93,25.75 -79.39,-24.44 -3.11,-33.26 43.91,-39.38 76,-46.39 32.17,-7.03 61.71,-13.61 93.87,-20.64"/>
    <circle class="fil0 str2" cx="234.92" cy="263.62" r="66.8"/>
    <circle class="fil0 str2" cx="352.78" cy="329.71" r="66.8"/>
   </g>
  </g>
 </g>
</svg>
