<svg xmlns="http://www.w3.org/2000/svg" xml:space="preserve" width="0.590551in" height="0.590551in" version="1.1" style="shape-rendering:geometricPrecision; text-rendering:geometricPrecision; image-rendering:optimizeQuality; fill-rule:evenodd; clip-rule:evenodd"
viewBox="0 0 590.55 590.55"
 xmlns:xlink="http://www.w3.org/1999/xlink"
 xmlns:xodm="http://www.corel.com/coreldraw/odm/2003">
 <defs>
  <style type="text/css">
   <![CDATA[
    .str0 {stroke:#9f7d48;stroke-width:7.87;stroke-miterlimit:2.61313}
    .fil0 {fill:none}
   ]]>
  </style>
 </defs>
 
 <g id="Layer_x0020_1_0">
  
  <g id="_1737196451104">
   <polyline class="fil0 str0" points="374.09,370.43 373.65,331.39 407.43,296.67 "/>
   <polyline class="fil0 str0" points="353.83,376.7 328.63,376.41 293.89,410.2 "/>
   <path class="fil0 str0" d="M379.17 371.59c37.67,-42.87 37.67,-107 0,-149.87"/>
   <path class="fil0 str0" d="M242.52 397.91c36.8,18.68 65.94,18.68 102.72,0"/>
   <polyline class="fil0 str0" points="213.69,370.43 214.13,331.39 180.35,296.67 "/>
   <polyline class="fil0 str0" points="233.94,376.7 259.17,376.41 293.89,410.2 "/>
   <path class="fil0 str0" d="M208.6 221.72c-37.67,42.87 -37.67,107 0,149.87"/>
   <polyline class="fil0 str0" points="374.09,222.89 373.65,261.93 407.43,296.67 "/>
   <polyline class="fil0 str0" points="353.83,216.61 328.63,216.89 293.89,183.11 "/>
   <path class="fil0 str0" d="M345.24 195.41c-36.78,-18.66 -65.93,-18.66 -102.72,0"/>
   <polyline class="fil0 str0" points="213.69,222.89 214.13,261.93 180.35,296.67 "/>
   <polyline class="fil0 str0" points="233.94,216.61 259.17,216.89 293.89,183.11 "/>
   <path class="fil0 str0" d="M345.17 395.96c0,18.2 7.55,25.74 25.73,25.74 18.2,0 25.73,-7.54 25.73,-25.74 0,-18.19 -7.54,-25.73 -25.73,-25.73 -18.18,0 -25.73,7.54 -25.73,25.73z"/>
   <path class="fil0 str0" d="M242.61 395.96c0,18.2 -7.54,25.74 -25.73,25.74 -18.2,0 -25.73,-7.54 -25.73,-25.74 0,-18.19 7.54,-25.73 25.73,-25.73 18.2,0 25.73,7.54 25.73,25.73z"/>
   <path class="fil0 str0" d="M345.17 197.35c0,-18.18 7.55,-25.72 25.73,-25.72 18.2,0 25.73,7.54 25.73,25.72 0,18.21 -7.54,25.73 -25.73,25.73 -18.18,0 -25.73,-7.52 -25.73,-25.73z"/>
   <path class="fil0 str0" d="M242.61 197.35c0,-18.18 -7.54,-25.72 -25.73,-25.72 -18.2,0 -25.73,7.54 -25.73,25.72 0,18.21 7.54,25.73 25.73,25.73 18.2,0 25.73,-7.52 25.73,-25.73z"/>
   <line class="fil0 str0" x1="495.19" y1="266.02" x2="495.19" y2= "327.28" />
   <line class="fil0 str0" x1="453.5" y1="266.02" x2="453.5" y2= "327.28" />
   <line class="fil0 str0" x1="411.81" y1="266.02" x2="411.81" y2= "327.28" />
   <path class="fil0 str0" d="M403.22 327.28c38.86,0 77.74,0 116.6,0 12.07,0 17.06,-4.99 17.06,-17.06 0,-9.03 0,-18.09 0,-27.14 0,-12.07 -4.99,-17.06 -17.06,-17.06 -38.86,0 -77.74,0 -116.6,0"/>
   <path class="fil0 str0" d="M381.74 368.57c55.99,0 111.99,0 167.98,0 20.09,0 28.43,-8.33 28.43,-28.44 0,-28.98 0,-57.95 0,-86.94 0,-20.11 -8.33,-28.44 -28.43,-28.44 -56,0 -111.99,0 -167.98,0"/>
   <path class="fil0 str0" d="M206.02 368.57c-55.99,0 -111.97,0 -167.97,0 -20.11,0 -28.44,-8.33 -28.44,-28.44 0,-28.98 0,-57.95 0,-86.94 0,-20.11 8.33,-28.44 28.44,-28.44 56,0 111.98,0 167.97,0"/>
   <path class="fil0 str0" d="M184.57 327.28c-38.88,0 -77.75,0 -116.61,0 -12.06,0 -17.06,-4.99 -17.06,-17.06 0,-9.03 0,-18.09 0,-27.14 0,-12.07 5,-17.06 17.06,-17.06 38.86,0 77.74,0 116.61,0"/>
   <line class="fil0 str0" x1="328.63" y1="216.89" x2="339.2" y2= "192.56" />
   <line class="fil0 str0" x1="328.63" y1="216.89" x2="338.2" y2= "252.33" />
   <line class="fil0 str0" x1="328.63" y1="216.89" x2="293.89" y2= "234.76" />
   <line class="fil0 str0" x1="338.2" y1="252.33" x2="293.89" y2= "234.76" />
   <line class="fil0 str0" x1="373.65" y1="331.39" x2="397.98" y2= "341.98" />
   <line class="fil0 str0" x1="373.65" y1="331.39" x2="338.2" y2= "340.98" />
   <line class="fil0 str0" x1="373.65" y1="331.39" x2="355.78" y2= "296.67" />
   <line class="fil0 str0" x1="338.2" y1="340.98" x2="355.78" y2= "296.67" />
   <line class="fil0 str0" x1="338.2" y1="252.33" x2="355.78" y2= "296.67" />
   <line class="fil0 str0" x1="373.65" y1="261.93" x2="355.78" y2= "296.67" />
   <line class="fil0 str0" x1="373.65" y1="261.93" x2="338.2" y2= "252.33" />
   <line class="fil0 str0" x1="373.65" y1="261.93" x2="397.98" y2= "251.33" />
   <line class="fil0 str0" x1="338.2" y1="340.98" x2="293.89" y2= "358.54" />
   <line class="fil0 str0" x1="328.63" y1="376.41" x2="293.89" y2= "358.54" />
   <line class="fil0 str0" x1="328.63" y1="376.41" x2="338.2" y2= "340.98" />
   <line class="fil0 str0" x1="328.63" y1="376.41" x2="339.2" y2= "400.76" />
   <line class="fil0 str0" x1="259.17" y1="376.41" x2="248.56" y2= "400.76" />
   <line class="fil0 str0" x1="259.17" y1="376.41" x2="249.57" y2= "340.98" />
   <line class="fil0 str0" x1="259.17" y1="376.41" x2="293.89" y2= "358.54" />
   <line class="fil0 str0" x1="249.57" y1="340.98" x2="293.89" y2= "358.54" />
   <line class="fil0 str0" x1="214.13" y1="261.93" x2="189.8" y2= "251.33" />
   <line class="fil0 str0" x1="214.13" y1="261.93" x2="249.57" y2= "252.33" />
   <line class="fil0 str0" x1="214.13" y1="261.93" x2="231.98" y2= "296.67" />
   <line class="fil0 str0" x1="249.57" y1="252.33" x2="231.98" y2= "296.67" />
   <line class="fil0 str0" x1="249.57" y1="340.98" x2="231.98" y2= "296.67" />
   <line class="fil0 str0" x1="214.13" y1="331.39" x2="231.98" y2= "296.67" />
   <line class="fil0 str0" x1="214.13" y1="331.39" x2="249.57" y2= "340.98" />
   <line class="fil0 str0" x1="214.13" y1="331.39" x2="189.8" y2= "341.98" />
   <line class="fil0 str0" x1="249.57" y1="252.33" x2="293.89" y2= "234.76" />
   <line class="fil0 str0" x1="259.17" y1="216.89" x2="293.89" y2= "234.76" />
   <line class="fil0 str0" x1="259.17" y1="216.89" x2="249.57" y2= "252.33" />
   <line class="fil0 str0" x1="259.17" y1="216.89" x2="248.56" y2= "192.56" />
   <line class="fil0 str0" x1="175.97" y1="266.02" x2="175.97" y2= "327.28" />
   <line class="fil0 str0" x1="134.3" y1="266.02" x2="134.3" y2= "327.28" />
   <line class="fil0 str0" x1="92.58" y1="266.02" x2="92.58" y2= "327.28" />
  </g>
 </g>
</svg>
